<?xml version="1.0" encoding="utf-8"?>
<!-- Generator: Adobe Illustrator 24.0.2, SVG Export Plug-In . SVG Version: 6.00 Build 0)  -->
<svg version="1.1" id="Layer_1" xmlns="http://www.w3.org/2000/svg" xmlns:xlink="http://www.w3.org/1999/xlink" x="0px" y="0px"
	 viewBox="0 0 200 200" style="enable-background:new 0 0 200 200;" xml:space="preserve">
<style type="text/css">
	.st0{fill:#FF192E;}
	.st1{fill:#FBB30B;stroke:#FFFFFF;stroke-miterlimit:10;}
	.st2{opacity:0.2;}
	.st3{fill:#231F20;}
	.st4{fill:#FFFFFF;}
</style>
<g>
	<path class="st0" d="M93.05,171.83L93.05,171.83c-14.44,0-26.14-11.7-26.14-26.14V74.26c0-14.44,11.7-26.14,26.14-26.14h0
		c14.44,0,26.14,11.7,26.14,26.14v71.44C119.19,160.13,107.49,171.83,93.05,171.83z"/>
	<g>
		<g>
			<circle class="st1" cx="92.97" cy="134.92" r="19.81"/>
		</g>
		<g class="st2">
			<g>
				<g>
					<path class="st3" d="M95.33,136.14l-2.06,1.75c-0.16,0.14-0.4,0.14-0.56,0l-2.06-1.74l-8.41,7.11h21.47L95.33,136.14z"/>
					<polygon class="st3" points="81.45,128.35 81.45,142.72 89.92,135.54 					"/>
					<polygon class="st3" points="82.24,127.82 92.97,136.93 103.71,127.82 					"/>
					<polygon class="st3" points="96.02,135.54 104.49,142.72 104.49,128.35 					"/>
				</g>
			</g>
		</g>
		<g>
			<g>
				<g>
					<path class="st4" d="M95.33,135.52l-2.06,1.75c-0.16,0.14-0.4,0.14-0.56,0l-2.06-1.74l-8.41,7.11h21.47L95.33,135.52z"/>
					<polygon class="st4" points="81.45,127.73 81.45,142.1 89.92,134.92 					"/>
					<polygon class="st4" points="82.24,127.2 92.97,136.31 103.71,127.2 					"/>
					<polygon class="st4" points="96.02,134.92 104.49,142.1 104.49,127.73 					"/>
				</g>
			</g>
		</g>
	</g>
	<g>
		<g>
			<circle class="st1" cx="92.05" cy="86.27" r="19.81"/>
		</g>
		<g class="st2">
			<g>
				<path class="st3" d="M90.2,81.9c-0.25-2.97-3.34-4.4-3.47-4.46c-0.19-0.06-0.31-0.06-0.43-0.06c-3.59,0.62-4.09,2.66-4.15,2.79
					c0,0.12,0,0.25,0,0.37C86.42,93.79,95.27,96.2,98.18,97c0.25,0.06,0.43,0.12,0.56,0.19c0.06,0,0.12,0.06,0.19,0.06
					c0.12,0,0.19,0,0.31-0.06c0.06-0.06,2.17-1.05,2.72-4.27c0-0.12,0-0.31-0.06-0.43c-0.06-0.06-1.18-2.17-4.21-2.91
					c-0.19-0.06-0.43,0-0.62,0.12c-0.99,0.8-2.29,1.67-2.85,1.8c-3.84-1.86-6-5.51-6.07-6.19c-0.06-0.37,0.8-1.73,1.86-2.85
					C90.14,82.33,90.2,82.09,90.2,81.9z"/>
			</g>
		</g>
		<g>
			<g>
				<path class="st4" d="M90.2,80.66c-0.25-2.97-3.34-4.4-3.47-4.46c-0.19-0.06-0.31-0.06-0.43-0.06c-3.59,0.62-4.09,2.66-4.15,2.79
					c0,0.12,0,0.25,0,0.37c4.27,13.25,13.12,15.66,16.03,16.47c0.25,0.06,0.43,0.12,0.56,0.19c0.06,0,0.12,0.06,0.19,0.06
					c0.12,0,0.19,0,0.31-0.06c0.06-0.06,2.17-1.05,2.72-4.27c0-0.12,0-0.31-0.06-0.43c-0.06-0.06-1.18-2.17-4.21-2.91
					c-0.19-0.06-0.43,0-0.62,0.12c-0.99,0.8-2.29,1.67-2.85,1.8c-3.84-1.86-6-5.51-6.07-6.19c-0.06-0.37,0.8-1.73,1.86-2.85
					C90.14,81.1,90.2,80.85,90.2,80.66z"/>
			</g>
		</g>
	</g>
</g>
</svg>
