<svg id="Layer_1" data-name="Layer 1" xmlns="http://www.w3.org/2000/svg" viewBox="0 0 40.62 40.62"><defs><style>.cls-1{fill:#fbb30b;stroke:#fff;stroke-miterlimit:10;}.cls-2{opacity:0.2;}.cls-3{fill:#231f20;}.cls-4{fill:#fff;}</style></defs><title>Call</title><circle class="cls-1" cx="20.31" cy="20.31" r="19.81"/><g class="cls-2"><path class="cls-3" d="M98.14,100.57c-.24-3-3.34-4.4-3.46-4.46a1.27,1.27,0,0,0-.44-.06c-3.59.62-4.08,2.66-4.14,2.78v.38c4.27,13.24,13.12,15.66,16,16.46a3,3,0,0,1,.56.19c.06,0,.12.06.18.06a.56.56,0,0,0,.31-.06,5.75,5.75,0,0,0,2.72-4.27,1.12,1.12,0,0,0-.06-.44,6.7,6.7,0,0,0-4.21-2.91.76.76,0,0,0-.62.13,10.8,10.8,0,0,1-2.84,1.79c-3.84-1.85-6-5.51-6.07-6.19A6.81,6.81,0,0,1,98,101.13.91.91,0,0,0,98.14,100.57Z" transform="translate(-79.69 -84.63)"/></g><path class="cls-4" d="M98.14,99.33c-.24-3-3.34-4.4-3.46-4.46a1.27,1.27,0,0,0-.44-.06c-3.59.62-4.08,2.66-4.14,2.79V98c4.27,13.25,13.12,15.66,16,16.46a3.93,3.93,0,0,1,.56.19c.06,0,.12.06.18.06a.56.56,0,0,0,.31-.06,5.75,5.75,0,0,0,2.72-4.27,1,1,0,0,0-.06-.43,6.62,6.62,0,0,0-4.21-2.91.75.75,0,0,0-.62.12,10.8,10.8,0,0,1-2.84,1.79c-3.84-1.85-6-5.5-6.07-6.19A6.81,6.81,0,0,1,98,99.89.89.89,0,0,0,98.14,99.33Z" transform="translate(-79.69 -84.63)"/></svg>