<?xml version="1.0" encoding="utf-8"?>
<!-- Generator: Adobe Illustrator 24.0.2, SVG Export Plug-In . SVG Version: 6.00 Build 0)  -->
<svg version="1.1" id="Layer_1" xmlns="http://www.w3.org/2000/svg" xmlns:xlink="http://www.w3.org/1999/xlink" x="0px" y="0px"
	 viewBox="0 0 1920 1080" style="enable-background:new 0 0 1920 1080;" xml:space="preserve">
<style type="text/css">
	.st0{fill:#FF192E;}
	.st1{fill:#F1AC0B;stroke:#FFFFFF;stroke-width:2;stroke-miterlimit:10;}
	.st2{fill:#FFFFFF;}
	.st3{fill:#EE1D52;}
	.st4{fill:#69C9D0;}
	.st5{fill:none;stroke:#FFFFFF;stroke-width:3;stroke-miterlimit:10;}
	.st6{fill:none;stroke:#FF192E;stroke-width:3;stroke-miterlimit:10;}
	.st7{font-family:'Poppins-Regular';}
	.st8{font-size:46px;}
</style>
<g>
	<g>
		<path class="st0" d="M1615.91,772.73H340.52c-42.24,0-76.48-34.24-76.48-76.48v0c0-42.24,34.24-76.48,76.48-76.48h1275.4
			c42.24,0,76.48,34.24,76.48,76.48v0C1692.39,738.49,1658.15,772.73,1615.91,772.73z"/>
		<g>
			<g>
				<g>
					<circle class="st1" cx="793.6" cy="696.25" r="52.74"/>
				</g>
				<g id="XMLID_13_">
					<path id="XMLID_17_" class="st2" d="M806.39,664.59H780.8c-10.4,0-18.86,8.46-18.86,18.86v25.59c0,10.4,8.46,18.86,18.86,18.86
						h25.59c10.4,0,18.86-8.46,18.86-18.86v-25.59C825.26,673.05,816.79,664.59,806.39,664.59z M818.89,709.05
						c0,6.9-5.59,12.49-12.49,12.49H780.8c-6.9,0-12.49-5.59-12.49-12.49v-25.59c0-6.9,5.59-12.49,12.49-12.49h25.59
						c6.9,0,12.49,5.59,12.49,12.49V709.05L818.89,709.05z"/>
					<path id="XMLID_81_" class="st2" d="M793.6,679.87c-9.03,0-16.38,7.35-16.38,16.38s7.35,16.38,16.38,16.38
						c9.03,0,16.38-7.35,16.38-16.38C809.97,687.22,802.63,679.87,793.6,679.87z M793.6,706.26c-5.53,0-10.01-4.48-10.01-10.01
						c0-5.53,4.48-10.01,10.01-10.01c5.53,0,10.01,4.48,10.01,10.01C803.6,701.78,799.12,706.26,793.6,706.26z"/>
					<circle id="XMLID_83_" class="st2" cx="810" cy="680" r="3.92"/>
				</g>
			</g>
			<g>
				<g>
					<circle class="st1" cx="1194.27" cy="696.25" r="52.74"/>
				</g>
				<g>
					<g>
						<path class="st3" d="M1165.21,721.58l0.23,0.66C1165.42,722.17,1165.33,721.94,1165.21,721.58z"/>
					</g>
					<path class="st2" d="M1222.36,679.58v9.13c0,0-4.15-0.17-7.22-0.98c-4.29-1.14-7.04-2.89-7.04-2.89s-1.9-1.25-2.06-1.33v24.07
						c0,1.34-0.35,4.69-1.42,7.48c-1.4,3.65-3.56,6.05-3.96,6.54c0,0-2.63,3.24-7.26,5.42c-4.18,1.97-7.85,1.92-8.94,1.97
						c0,0-6.34,0.26-12.05-3.61l-0.03-0.02c-0.6-0.61-1.17-1.25-1.7-1.93c-1.82-2.32-2.94-5.06-3.22-5.84c0,0,0-0.01,0-0.01
						c-0.45-1.36-1.4-4.62-1.27-7.78c0.23-5.58,2.11-9,2.61-9.86c1.32-2.34,3.03-4.43,5.06-6.18c1.79-1.51,3.83-2.72,6.01-3.56
						c2.37-0.99,4.9-1.52,7.46-1.57v9.24c0,0-4.69-1.55-8.45,1.2c-2.63,2.03-4.02,4.02-4.43,7.56c-0.02,2.61,0.62,6.3,4.13,8.76
						c0.41,0.27,0.81,0.51,1.2,0.72c0.61,0.83,1.36,1.56,2.21,2.14c3.43,2.26,6.3,2.42,9.97,0.95c2.45-0.98,4.29-3.2,5.15-5.65
						c0.54-1.53,0.53-3.08,0.53-4.67v-45.38h8.55c0.35,2.1,1.33,5.08,3.91,8.03c1.04,1.12,2.2,2.1,3.48,2.94
						c0.38,0.41,2.3,2.41,4.77,3.64C1219.63,678.76,1220.97,679.25,1222.36,679.58z"/>
					<path class="st4" d="M1164.06,714.76L1164.06,714.76l0.21,0.61C1164.25,715.29,1164.17,715.08,1164.06,714.76L1164.06,714.76z"
						/>
					<path class="st2" d="M1179.87,690.2c-2.19,0.84-4.22,2.05-6.01,3.56c-2.03,1.76-3.74,3.85-5.06,6.2
						c-0.5,0.85-2.38,4.28-2.61,9.86c-0.13,3.16,0.82,6.42,1.27,7.78c0,0,0,0.01,0,0.01c0.28,0.77,1.4,3.52,3.22,5.84
						c0.53,0.67,1.1,1.32,1.7,1.93c-1.93-1.34-3.65-2.95-5.11-4.79c-1.81-2.3-2.92-5.01-3.21-5.81c0-0.01,0-0.01,0-0.02v-0.01
						c-0.45-1.36-1.4-4.62-1.27-7.79c0.23-5.58,2.11-9,2.61-9.86c1.31-2.34,3.03-4.44,5.06-6.2c1.79-1.51,3.82-2.72,6.01-3.56
						c1.36-0.57,2.79-0.98,4.24-1.25c2.19-0.38,4.43-0.42,6.63-0.1v2.63C1184.77,688.68,1182.24,689.21,1179.87,690.2z"/>
					<path class="st2" d="M1206.2,663.51h-8.55v45.38c0,1.6,0,3.13-0.53,4.67c-0.86,2.45-2.7,4.67-5.15,5.65
						c-3.67,1.48-6.54,1.31-9.97-0.95c-0.85-0.59-1.6-1.31-2.21-2.14c2.92,1.56,5.53,1.53,8.77,0.23c2.45-0.98,4.28-3.2,5.14-5.65
						c0.54-1.53,0.53-3.08,0.53-4.67v-45.39h11.8C1206.04,660.65,1205.91,661.78,1206.2,663.51z M1222.36,677.06v2.53
						c-1.39-0.33-2.73-0.82-4-1.45c-2.47-1.23-4.39-3.24-4.77-3.64c0.44,0.29,0.89,0.55,1.36,0.78
						C1217.95,676.76,1220.9,677.21,1222.36,677.06L1222.36,677.06z"/>
				</g>
			</g>
			<g>
				<g>
					<circle class="st1" cx="392.92" cy="696.25" r="52.74"/>
				</g>
				<path class="st2" d="M400.56,676.84h8.08v-11.93h-9.5v0.04c-11.51,0.41-13.87,6.88-14.07,13.67h-0.02v5.96h-7.84v11.69h7.84
					v31.33h11.81v-31.33h9.67l1.87-11.69h-11.54v-3.6C396.85,678.68,398.38,676.84,400.56,676.84z"/>
			</g>
			<g>
				<g>
					<circle class="st1" cx="1594.95" cy="696.25" r="52.74"/>
				</g>
				<g>
					<path class="st5" d="M1567.94,722.37l4.82-14.45c-2.44-4.11-3.85-8.91-3.85-14.04c0-15.2,12.33-27.53,27.53-27.53
						c15.2,0,27.53,12.33,27.53,27.53s-12.33,27.53-27.53,27.53c-4.63,0-8.98-1.15-12.81-3.16L1567.94,722.37z"/>
					<path class="st2" d="M1609.95,701.69c-1.06-2.01-4.99-4.31-4.99-4.31c-0.89-0.51-1.96-0.56-2.46,0.34c0,0-1.27,1.53-1.6,1.75
						c-1.48,1-2.85,0.96-4.24-0.42l-3.22-3.22l-3.22-3.22c-1.38-1.38-1.42-2.76-0.42-4.24c0.22-0.32,1.75-1.6,1.75-1.6
						c0.9-0.51,0.85-1.58,0.34-2.46c0,0-2.3-3.92-4.31-4.99c-0.85-0.45-1.9-0.29-2.59,0.39l-1.42,1.42
						c-4.51,4.51-2.29,9.6,2.22,14.1l4.12,4.12l4.12,4.12c4.51,4.51,9.6,6.73,14.1,2.22l1.42-1.42
						C1610.25,703.59,1610.4,702.54,1609.95,701.69z"/>
				</g>
			</g>
		</g>
		<path class="st6" d="M1669.92,864.22H284.95c-39.26,0-71.08-31.82-71.08-71.08V645.47c0-39.26,31.82-71.08,71.08-71.08h1384.97
			c39.26,0,71.08,31.82,71.08,71.08v147.67C1741,832.4,1709.18,864.22,1669.92,864.22z"/>
		<rect x="835.34" y="550.29" class="st2" width="400.68" height="57.78"/>
	</g>
	<text transform="matrix(1 0 0 1 849.3373 587.8552)" class="st7 st8">Connect with us</text>
</g>
</svg>
