<svg xmlns="http://www.w3.org/2000/svg" viewBox="0 0 573.85 638.97"><defs><style>.cls-1,.cls-5{fill:#ff192e;}.cls-2{fill:#ffb30b;}.cls-3{fill:none;stroke:#fbb30b;stroke-miterlimit:10;stroke-width:6px;}.cls-4{fill:#fbb30b;}.cls-5{font-size:96px;font-family:Marborn-Script, Marborn;}.cls-6{letter-spacing:0em;}.cls-7{letter-spacing:-0.03em;}.cls-8{letter-spacing:0em;}</style></defs><title>final logo K6</title><g id="Layer_1" data-name="Layer 1"><polygon class="cls-1" points="244.53 0.86 291.96 0.86 291.96 201.78 244.51 249.23 244.53 0.86"/><polygon class="cls-1" points="369.83 229.34 336.85 262.33 507.08 439.04 573.85 439.04 369.83 229.34"/><path class="cls-2" d="M176.65,234.25q-5.52,6.09-10.65,12.53-2.55,3.22-5,6.52L159.77,255l-.6.83c-.19.26-.32.44-.46.67a9.31,9.31,0,0,0-1.29,6,17.39,17.39,0,0,0,.82,3.42,12,12,0,0,0,9.75,8.3c.58.11,1.18.14,1.77.23s1.21,0,1.82.05,1.24-.07,1.85-.1a17.44,17.44,0,0,1,2.56-.07,10.52,10.52,0,0,1,7.48,4c.15.2.29.39.42.59l.34.52.55.88,4.45,7,8.89,14.05,2.23,3.52,1.11,1.76.56.87.27.44c.12.2.25.4.36.6a11.81,11.81,0,0,1,1.46,5.36v1c0,.3,0,.6.06.91,0,.6.12,1.21.22,1.81a21.43,21.43,0,0,0,2.37,6.86,22.67,22.67,0,0,0,2,3,9.12,9.12,0,0,0,2.39,2c3.73,2.29,9.28,2.55,12.62.3a7.27,7.27,0,0,0,3.09-4.89,12.76,12.76,0,0,0-.58-6.62,16.24,16.24,0,0,0-6.43-8,8.38,8.38,0,0,0-1.37-.69,6.26,6.26,0,0,0-.66-.21l-.33-.08-.4-.07a11.31,11.31,0,0,1-5.17-2.12,9.54,9.54,0,0,1-1.12-1,11.77,11.77,0,0,1-.88-1,10.62,10.62,0,0,1-1.49-2.52,7.52,7.52,0,0,1-.53-3.4,7.23,7.23,0,0,1,1.15-3.3,8.17,8.17,0,0,1,5.27-3.6,11.75,11.75,0,0,1,2.81-.17,17.15,17.15,0,0,1,2.53.31,23.11,23.11,0,0,1,4.57,1.51,36.31,36.31,0,0,1,7.66,4.87c.58.45,1.13.94,1.68,1.42a19.94,19.94,0,0,1,1.72,1.64,19.56,19.56,0,0,1,1.55,1.88c.47.63.94,1.39,1.27,1.94l4.36,7.09,17.42,28.37.15.23.08.23a47.62,47.62,0,0,1,1.85,5.84,29.61,29.61,0,0,1,.6,3.14l.14,1.49c.05.41.1.82.17,1.21a14.22,14.22,0,0,0,.58,2.27,9.15,9.15,0,0,0,1,1.93,13.34,13.34,0,0,0,1.42,1.81,8.31,8.31,0,0,0,.72.67l.15.1.23.14.49.29a10.06,10.06,0,0,0,8.46.93,7.7,7.7,0,0,0,3.29-2.36,10.14,10.14,0,0,0,1.13-1.78,13.24,13.24,0,0,0,.68-2.13,14.36,14.36,0,0,0,.34-2.33c0-.08,0-.25,0-.25v-.12c0-.11,0-.26-.05-.41a10.24,10.24,0,0,0-.23-1.06,13.78,13.78,0,0,0-.81-2.21,17.71,17.71,0,0,0-1.18-2.13,13.87,13.87,0,0,0-3.15-3.48,10.22,10.22,0,0,0-1.91-1.2l-.67-.34a7.45,7.45,0,0,1-.91-.53,10.37,10.37,0,0,1-1.57-1.29,11.35,11.35,0,0,1-1.25-1.52c-.19-.27-.36-.55-.46-.72l-.38-.61-1.49-2.44-3-4.87-.38-.6-.19-.31-.1-.17-.21-.39a5,5,0,0,1,1.7-6.33,4,4,0,0,1,.35-.21l.23-.13.47-.23a9.08,9.08,0,0,1,1-.39,9.36,9.36,0,0,1,4.17-.37,9.72,9.72,0,0,1,2,.53c.32.12.65.28.95.42l.63.33,40.64,20.94,5.08,2.61,2.54,1.31,1.27.66.32.16.09,0c.06,0,.12,0,.17.06a1,1,0,0,0,1.08-.63s0-.11,0-.16a.27.27,0,0,0,0-.09.54.54,0,0,0,0-.18V319.45l-.06-182.86V103.13a4.38,4.38,0,0,0,0-.51,7.49,7.49,0,0,0-4.7-6.18,8.57,8.57,0,0,0-1-.31c-.1,0-.09,0-.14,0s0,0,0,0h-.15l-.31,0c-.79,0-1.73.11-2.62.18-1.82.19-3.67.44-5.51.72-3.69.58-7.38,1.26-11.05,2.07-7.35,1.59-14.64,3.54-21.85,5.75a313.3,313.3,0,0,0-148.41,99.35l-3.57,4.39c-1.19,1.47-2.4,2.91-3.5,4.44l-6.77,9.08-6.4,9.35-.8,1.17-.4.58c-.12.19-.19.33-.3.49a10.62,10.62,0,0,0-.92,2,10.41,10.41,0,0,0-.5,4.4,10.59,10.59,0,0,0,1.31,4.25,7.55,7.55,0,0,0,2.81,3,9.94,9.94,0,0,0,.92.47c.31.13.6.23,1.1.4l2.71.9,5.43,1.81,21.68,7.22-1.89,5.67-21.68-7.23-5.42-1.8-2.72-.91c-.39-.13-1-.33-1.57-.57a15.65,15.65,0,0,1-1.63-.84,13.62,13.62,0,0,1-5-5.2,16.61,16.61,0,0,1-2-6.59,16.32,16.32,0,0,1,.79-6.86,15.52,15.52,0,0,1,1.44-3.16c.14-.24.3-.52.44-.73l.41-.59.81-1.19,6.51-9.52,6.9-9.25c1.12-1.56,2.36-3,3.57-4.53l3.64-4.47A319.21,319.21,0,0,1,277,99.17c7.36-2.26,14.8-4.25,22.35-5.88Q305,92,310.74,91.15c1.92-.3,3.85-.55,5.82-.76,1-.08,2-.19,3.08-.21l.4,0h.52a11.94,11.94,0,0,1,1.28.14,13.11,13.11,0,0,1,1.74.57A13.49,13.49,0,0,1,332,102a7,7,0,0,1,.06.91l0,.46v33.23l.06,182.85v27.15c0,.08,0,.34,0,.53s0,.41-.06.62a6.59,6.59,0,0,1-.3,1.22,7,7,0,0,1-8,4.54,8,8,0,0,1-1.2-.37l-.56-.26-.31-.16-1.27-.65L318,350.75l-5.08-2.62L272.23,327.2l-.64-.33a3.52,3.52,0,0,0-.35-.16,2.92,2.92,0,0,0-.72-.18,3.24,3.24,0,0,0-1.48.13l-.34.13a.91.91,0,0,0-.17.09l-.08,0c-.05,0,0,0,0,0a1,1,0,0,0,.41-.57,1,1,0,0,0-.07-.7.59.59,0,0,0,0-.08l.08.14.19.3.37.61,3,4.87,1.5,2.43.37.61.3.48a5.48,5.48,0,0,0,.56.68,4.29,4.29,0,0,0,.64.52,1.81,1.81,0,0,0,.33.2l.6.29a16.69,16.69,0,0,1,2.92,1.84,20.19,20.19,0,0,1,4.49,4.94,22.85,22.85,0,0,1,1.59,2.86,19.39,19.39,0,0,1,1.15,3.16,13.42,13.42,0,0,1,.38,1.73,9.18,9.18,0,0,1,.11,1,5.41,5.41,0,0,1,0,.58c0,.24,0,.31,0,.47a20,20,0,0,1-.48,3.31,17.67,17.67,0,0,1-1.08,3.3,16.14,16.14,0,0,1-1.91,3,13.78,13.78,0,0,1-5.87,4.21,16.07,16.07,0,0,1-13.54-1.36l-.74-.45-.37-.23a5,5,0,0,1-.44-.32,14.38,14.38,0,0,1-1.38-1.26,18.48,18.48,0,0,1-2.1-2.68,14.66,14.66,0,0,1-1.58-3.17,19.54,19.54,0,0,1-.84-3.26c-.1-.55-.17-1.08-.23-1.62l-.13-1.36a24.22,24.22,0,0,0-.47-2.47,41.58,41.58,0,0,0-1.6-5l.23.46L237.39,316,233,308.9c-.38-.64-.65-1.06-1-1.55a15.52,15.52,0,0,0-1.1-1.33,14,14,0,0,0-1.29-1.22c-.49-.43-1-.87-1.49-1.26a29.77,29.77,0,0,0-6.35-4.06,16.48,16.48,0,0,0-3.31-1.1,10,10,0,0,0-1.6-.2,6.5,6.5,0,0,0-1.33.05,2.27,2.27,0,0,0-1.43.95,1.14,1.14,0,0,0-.22.59,1.31,1.31,0,0,0,.12.66,4.48,4.48,0,0,0,.64,1.05c.14.18.32.39.48.56a5.3,5.3,0,0,0,.43.38,5.37,5.37,0,0,0,2.46,1l.63.11.69.15a13.39,13.39,0,0,1,1.31.43,14.2,14.2,0,0,1,2.34,1.17,20.92,20.92,0,0,1,3.79,3,21.82,21.82,0,0,1,5.16,8.07,18.78,18.78,0,0,1,.82,9.77,14,14,0,0,1-1.9,4.89,13,13,0,0,1-3.75,3.84,16.51,16.51,0,0,1-9.69,2.57,19.43,19.43,0,0,1-9.36-2.71,15.77,15.77,0,0,1-3.93-3.35,28.29,28.29,0,0,1-2.62-3.9,27.52,27.52,0,0,1-3.05-8.79c-.13-.77-.22-1.54-.28-2.32,0-.39-.06-.78-.07-1.17l0-1.06a5.54,5.54,0,0,0-.71-2.6l-4.35-6.9-8.9-14.07-4.46-7-.55-.88-.23-.35a2.48,2.48,0,0,0-.19-.26,4.43,4.43,0,0,0-3.19-1.71c-.52-.08-2.44.17-3.9.18-.78,0-1.55,0-2.33-.07s-1.58-.16-2.37-.3a18,18,0,0,1-14.34-12.21,23.35,23.35,0,0,1-1.12-4.65,15.19,15.19,0,0,1,2.13-9.94c.22-.36.49-.74.71-1l.62-.85,1.25-1.7q2.5-3.37,5.13-6.67,5.24-6.6,10.9-12.84Z" transform="translate(-101.14 -90.16)"/><path class="cls-3" d="M315.73,158.19s-67.25,3.34-128,60.55" transform="translate(-101.14 -90.16)"/><circle class="cls-3" cx="138.3" cy="129.7" r="11.44"/><circle class="cls-3" cx="200.76" cy="153.48" r="11.44"/><circle class="cls-3" cx="199.86" cy="218.95" r="11.44"/><circle class="cls-3" cx="157.81" cy="183.93" r="19.62"/><circle class="cls-3" cx="190.7" cy="103.79" r="12.67"/><circle class="cls-3" cx="103.33" cy="172.13" r="11.44"/><circle class="cls-3" cx="80.41" cy="134.8" r="11.44"/><circle class="cls-4" cx="40.91" cy="170.83" r="3.07"/><circle class="cls-4" cx="214.4" cy="68.04" r="3.07"/><path class="cls-4" d="M273.28,438.42s13-27.84,70.24-78.55c1.49-1.31,3-2.67,4.36-4.08L538.79,166.17H605L387.87,383.49Z" transform="translate(-101.14 -90.16)"/><path class="cls-4" d="M384.14,369.3c-70.14,0-127,60.44-127,135s56.86,135,127,135,127-60.44,127-135S454.28,369.3,384.14,369.3Zm0,223.23c-45.84,0-83-39.5-83-88.23s37.16-88.23,83-88.23,83,39.5,83,88.23S430,592.53,384.14,592.53Z" transform="translate(-101.14 -90.16)"/><text class="cls-5" transform="translate(14.8 610.46) scale(1.34 1)">Pi<tspan class="cls-6" x="71.04" y="0">z</tspan><tspan x="111.55" y="0">za &amp; </tspan><tspan class="cls-7" x="294.43" y="0">B</tspan><tspan class="cls-8" x="340.12" y="0">a</tspan><tspan x="380.54" y="0">r</tspan></text></g></svg>