<svg id="Layer_1" data-name="Layer 1" xmlns="http://www.w3.org/2000/svg" viewBox="0 0 107.48 107.48"><defs><style>.cls-1{fill:#f1ac0b;stroke:#fff;stroke-miterlimit:10;stroke-width:2px;}.cls-2{fill:#fff;}</style></defs><title>Insta</title><circle class="cls-1" cx="53.74" cy="53.74" r="52.74"/><path class="cls-2" d="M109.79,72.41H84.2A18.89,18.89,0,0,0,65.33,91.27v25.59A18.9,18.9,0,0,0,84.2,135.73h25.59a18.89,18.89,0,0,0,18.86-18.87V91.27A18.88,18.88,0,0,0,109.79,72.41Zm12.49,44.45a12.5,12.5,0,0,1-12.49,12.5H84.2a12.5,12.5,0,0,1-12.5-12.5V91.27A12.5,12.5,0,0,1,84.2,78.78h25.59a12.49,12.49,0,0,1,12.49,12.49v25.59Z" transform="translate(-43.25 -50.32)"/><path class="cls-2" d="M97,87.69a16.38,16.38,0,1,0,16.38,16.38A16.39,16.39,0,0,0,97,87.69Zm0,26.38a10,10,0,1,1,10-10A10,10,0,0,1,97,114.07Z" transform="translate(-43.25 -50.32)"/><circle class="cls-2" cx="70.15" cy="37.49" r="3.92"/></svg>