<svg width="395" height="405" viewBox="0 0 395 405" fill="none" xmlns="http://www.w3.org/2000/svg">
<g filter="url(#filter0_d_8_58)">
<rect width="295" height="147" fill="white"/>
<circle cx="147.5" cy="147.5" r="147.5" fill="white"/>
<path d="M57.6325 229.278C57.9818 230.5 59.3351 231.024 60.6884 231.198C61.4305 231.329 62.26 231.329 63.1767 231.286C62.4782 229.583 62.9148 225.698 63.7442 221.289C70.0305 222.336 76.4914 219.455 78.3686 210.943C80.464 201.731 69.2447 196.144 63.1767 198.414C60.5138 199.33 59.3787 200.989 58.8985 202.43C58.6366 203.259 58.5493 204.089 58.6366 205.006C60.2518 201.644 64.6173 200.422 68.3716 201.731C78.3249 205.049 71.3401 218.189 64.0935 219.412C65.2721 213.475 66.8437 207.363 67.1929 205.006C67.3676 203.958 66.0579 203.259 64.661 202.997C63.2204 202.735 61.6924 202.823 61.5178 203.347C62.0417 204.132 60.8193 209.196 59.597 214.697C58.331 220.197 57.196 226.309 57.6325 229.278ZM80.6669 206.577C83.0679 205.529 85.8618 206.97 87.3461 208.454L87.9136 206.577C88.4811 205.049 88.6994 202.866 85.6436 202.037C85.1197 201.95 84.5958 201.95 84.1156 201.993C83.2862 202.124 82.3258 202.474 81.8019 203.521L80.6669 206.577ZM89.1359 219.368C87.5207 222.38 84.072 227.226 83.4608 227.706C83.7227 225.043 84.0283 222.598 84.3776 220.372C84.9887 216.574 85.8182 212.471 86.8222 211.205C84.7705 209.851 81.8019 207.581 80.4923 211.205C80.0121 213.78 79.5755 216.181 79.1827 218.495C78.5715 222.467 77.9167 226.964 77.9167 229.321C77.9167 230.631 80.1431 231.766 82.3258 231.417C83.6791 231.242 85.5563 228.928 86.9969 226.746C87.87 225.48 88.743 224.039 89.6161 222.424L89.1359 219.368ZM94.9686 226.222C98.4174 222.773 104.223 219.935 106.188 215.876C107.585 212.951 103.132 209.939 100.993 209.458C98.461 208.891 90.7778 215.395 88.8133 219.368L89.3372 222.424C91.7818 218.058 94.7067 216.181 96.9767 215.352C98.33 214.872 99.6833 214.653 100.993 214.784C100.644 215.395 98.0681 218.189 95.4488 220.721C93.9646 222.249 92.3057 223.952 90.4285 225.785C89.7301 228.012 92.262 229.54 94.0082 230.238C92.8732 230.806 91.8255 231.417 90.8214 231.984C89.0752 232.988 87.1544 234.298 86.1504 235.389C83.4874 238.401 83.4438 242.199 87.329 243.116C96.5402 244.338 107.192 232.333 100.513 228.623C101.648 227.924 102.696 227.226 103.7 226.484C105.402 225.218 107.192 223.69 107.847 222.424L107.367 219.368C105.926 221.944 103.7 223.864 101.779 225.218C100.687 226.047 99.5087 226.746 98.33 227.313L94.9686 226.222ZM87.1108 238.314C87.2417 236.874 90.2976 235.127 96.1037 231.198C96.6712 231.417 97.3696 231.941 96.8021 233.818C95.929 236.393 86.7615 242.156 87.1108 238.314ZM113.385 226.222C116.834 222.773 122.64 219.935 124.605 215.876C126.002 212.951 121.549 209.939 119.41 209.458C116.878 208.891 109.195 215.395 107.23 219.368L107.754 222.424C110.199 218.058 113.124 216.181 115.394 215.352C116.747 214.872 118.1 214.653 119.41 214.784C119.061 215.395 116.485 218.189 113.866 220.721C112.381 222.249 110.723 223.952 108.845 225.785C108.147 228.012 110.679 229.54 112.425 230.238C111.29 230.806 110.242 231.417 109.238 231.984C107.492 232.988 105.571 234.298 104.567 235.389C101.904 238.401 101.861 242.199 105.746 243.116C114.957 244.338 125.609 232.333 118.93 228.623C120.065 227.924 121.112 227.226 122.116 226.484C123.819 225.218 125.609 223.69 126.264 222.424L125.783 219.368C124.343 221.944 122.116 223.864 120.196 225.218C119.104 226.047 117.926 226.746 116.747 227.313L113.385 226.222ZM105.528 238.314C105.659 236.874 108.714 235.127 114.521 231.198C115.088 231.417 115.786 231.941 115.219 233.818C114.346 236.393 105.178 242.156 105.528 238.314ZM133.676 225.873C133.545 227.051 133.458 227.706 133.633 228.885C133.764 230.5 136.165 231.155 138.478 230.936C139.526 230.936 141.054 228.885 142.32 226.702C143.586 224.563 144.634 222.424 144.634 222.424L144.154 219.368L139.308 227.182C139.352 224.432 139.613 220.503 140.181 217.185C140.748 213.911 141.709 211.292 143.106 211.117C139.963 208.804 137.038 207.756 135.859 211.117C135.903 211.51 135.641 212.252 135.641 212.601L132.847 210.331C132.454 209.982 131.712 209.633 130.883 209.764L128.787 209.982C127.216 210.157 126.692 211.379 125.993 212.732C124.072 216.923 123.461 222.511 124.029 229.147C124.247 231.504 130.402 231.286 131.232 230.238L133.676 225.873ZM129.18 228.23C128.831 224.868 129.442 217.709 131.581 212.645C131.93 211.947 133.982 214.26 135.204 215.57C134.986 216.661 134.68 217.796 134.462 218.975L129.18 228.23ZM174.1 226.789C176.239 224.039 177.331 220.983 177.549 219.412C177.898 217.971 177.2 217.36 176.37 217.054C175.89 216.923 175.323 216.836 174.668 216.88C175.235 218.8 174.188 221.944 172.223 224.432C171.699 223.733 171.35 223.297 171.001 222.948C169.779 221.332 168.949 219.717 168.294 218.189L170.652 215.963C171.918 214.741 173.751 212.383 174.712 209.895C175.672 207.45 175.803 204.831 173.882 203.259C170.39 200.204 166.024 202.299 164.278 206.883C162.75 210.55 163.23 214.304 164.584 217.971C157.424 222.336 156.638 227.75 159.039 230.762C161.397 233.818 166.766 234.473 171.656 229.234C172.572 230.282 173.402 231.155 173.969 231.722C174.319 232.072 174.624 232.377 174.93 232.639C175.323 232.202 175.628 231.81 175.847 231.417C176.239 230.718 176.545 229.932 176.065 229.409L174.1 226.789ZM167.465 215.657C165.806 209.109 168.644 204.394 169.822 204.263C173.009 204.962 171.612 211.248 167.465 215.657ZM169.691 226.833C166.81 230.325 163.972 230.806 162.75 229.365C161.528 227.924 161.921 224.607 165.762 220.678C166.941 222.948 168.338 225.043 169.691 226.833ZM197.433 216.618C199.79 217.316 204.461 219.63 202.497 224.432C200.401 229.583 196.254 228.841 193.024 228.71C192.456 228.579 192.107 229.234 193.111 229.627C194.333 230.282 196.167 230.587 198.044 230.893C204.505 231.81 207.735 227.531 208.434 222.948C209.482 216.181 202.497 215.701 203.326 215.308C209.613 212.863 211.926 208.498 211.228 204.744C210.573 201.033 206.95 197.803 201.362 197.89C193.635 198.064 191.103 200.596 191.976 205.791C193.853 200.16 205.378 199.243 205.902 205.529C206.251 208.891 203.152 213.213 197.826 214.26C198.699 211.161 199.659 208.498 200.139 207.232C200.838 205.791 199.572 204.787 198.175 204.132C197.346 203.783 196.341 203.478 195.163 203.259C195.163 206.184 193.286 210.55 191.67 219.979C190.885 225.043 192.107 227.051 193.635 227.662C194.464 228.055 195.512 228.055 196.734 227.662C195.206 226.003 195.992 221.245 197.127 216.618H197.433ZM219.068 225.873C218.937 227.051 218.849 227.706 219.024 228.885C219.155 230.5 221.556 231.155 223.87 230.936C224.917 230.936 226.445 228.885 227.711 226.702C228.977 224.563 230.025 222.424 230.025 222.424L229.545 219.368L224.699 227.182C224.743 224.432 225.005 220.503 225.572 217.185C226.14 213.911 227.1 211.292 228.497 211.117C225.354 208.804 222.429 207.756 221.25 211.117C221.294 211.51 221.032 212.252 221.032 212.601L218.238 210.331C217.845 209.982 217.103 209.633 216.274 209.764L214.178 209.982C212.607 210.157 212.083 211.379 211.384 212.732C209.463 216.923 208.852 222.511 209.42 229.147C209.638 231.504 215.793 231.286 216.623 230.238L219.068 225.873ZM214.571 228.23C214.222 224.868 214.833 217.709 216.972 212.645C217.321 211.947 219.373 214.26 220.595 215.57C220.377 216.661 220.072 217.796 219.853 218.975L214.571 228.23ZM229.977 222.424C230.544 221.682 231.112 220.678 231.679 219.499C232.596 217.447 233.731 214.304 234.473 209.764C234.473 209.72 235.084 209.939 235.652 210.157C235.957 210.288 236.35 210.462 236.787 210.681C236.219 212.907 233.775 219.892 233.906 225.043C234.037 230.063 234.168 230.5 237.791 230.718C241.414 231.067 244.034 226.178 245.911 222.424L245.431 219.368C243.335 223.253 240.716 227.662 239.755 227.531C238.664 227.357 242.375 213.082 242.899 210.593C242.986 209.982 242.986 209.327 242.855 208.673C242.724 208.018 242.244 207.581 241.414 207.363C238.62 208.367 236.918 208.847 235.39 207.799C236.569 204.787 233.164 203.434 232.465 208.323C231.941 211.947 231.155 214.697 230.588 216.574C230.239 217.665 229.889 218.582 229.497 219.368L229.977 222.424Z" fill="#FF192E"/>
<path d="M136.261 26.4595H151.879V91.1412L136.255 106.417L136.261 26.4595Z" fill="#FF192E"/>
<path d="M178.105 100.443L167.043 111.07L224.144 167.993H246.54L178.105 100.443Z" fill="#FF192E"/>
<path d="M79.3898 72.4738C78.1526 73.7835 76.9591 75.1308 75.8093 76.5157C75.2377 77.2082 74.6774 77.9093 74.1283 78.6189L73.7147 79.1673L73.513 79.4351C73.4491 79.5189 73.4054 79.577 73.3584 79.6512C72.9899 80.2308 72.8371 80.913 72.9246 81.5867C72.9774 81.9624 73.0698 82.332 73.2003 82.6899C73.4275 83.3876 73.8559 84.0093 74.436 84.4831C75.0161 84.9569 75.7242 85.2635 76.4783 85.3673C76.6733 85.4027 76.875 85.4124 77.0734 85.4415C77.2718 85.4705 77.4802 85.4415 77.6853 85.4576C77.8904 85.4737 78.1022 85.435 78.3073 85.4253C78.5932 85.3976 78.8809 85.39 79.168 85.4027C79.6575 85.4386 80.1339 85.5718 80.5669 85.7939C80.9999 86.0161 81.3799 86.3223 81.6828 86.6931C81.7332 86.7576 81.7803 86.8189 81.824 86.8834L81.9383 87.0511L82.1232 87.335L83.6193 89.593L86.6082 94.1253L87.3579 95.2607L87.7311 95.8285L87.9194 96.1091L88.0101 96.251C88.0505 96.3156 88.0942 96.3801 88.1312 96.4446C88.4357 96.9753 88.604 97.568 88.622 98.1736V98.4962C88.622 98.593 88.622 98.6897 88.6422 98.7897C88.6422 98.9833 88.6825 99.1801 88.7162 99.3736C88.8487 100.149 89.1182 100.898 89.513 101.586C89.71 101.926 89.9348 102.249 90.1854 102.554C90.4126 102.812 90.6845 103.03 90.9889 103.199C92.2429 103.938 94.1089 104.022 95.2318 103.296C95.5082 103.115 95.7431 102.882 95.9218 102.611C96.1005 102.34 96.2192 102.036 96.2707 101.719C96.4034 101.003 96.3361 100.266 96.0757 99.5833C95.6648 98.5215 94.9063 97.616 93.9139 97.0027C93.7678 96.9151 93.6136 96.8406 93.4533 96.7801C93.3807 96.7536 93.3066 96.731 93.2314 96.7123L93.1204 96.6865L92.9859 96.6639C92.3561 96.5791 91.7584 96.3439 91.2478 95.9801C91.1136 95.8822 90.9877 95.7744 90.8712 95.6575C90.7663 95.5554 90.6676 95.4477 90.5754 95.3349C90.3701 95.0874 90.2015 94.8139 90.0744 94.522C89.9275 94.1746 89.8665 93.7992 89.8962 93.4253C89.9324 93.0454 90.0652 92.6799 90.2829 92.3608C90.4819 92.063 90.7413 91.8068 91.0457 91.6073C91.3501 91.4077 91.6932 91.2691 92.0547 91.1995C92.3662 91.1449 92.6833 91.1265 92.9994 91.1446C93.2851 91.1577 93.5694 91.1911 93.85 91.2446C94.3784 91.3553 94.8934 91.5185 95.3864 91.7317C96.31 92.15 97.1752 92.6777 97.9618 93.3027C98.1568 93.4478 98.3417 93.6059 98.5266 93.7607C98.7301 93.9259 98.9232 94.1026 99.1049 94.2898C99.2915 94.4813 99.4656 94.6839 99.626 94.8962C99.784 95.0994 99.942 95.3446 100.053 95.522L101.519 97.8091L107.375 106.961L107.426 107.035L107.453 107.109C107.702 107.724 107.91 108.353 108.075 108.993C108.161 109.327 108.228 109.665 108.277 110.006L108.324 110.486C108.34 110.619 108.357 110.751 108.381 110.877C108.425 111.126 108.49 111.37 108.576 111.609C108.662 111.829 108.774 112.038 108.912 112.232C109.053 112.439 109.213 112.634 109.389 112.815C109.466 112.892 109.546 112.964 109.631 113.032L109.682 113.064L109.759 113.109L109.924 113.203C110.346 113.449 110.82 113.604 111.311 113.655C111.803 113.707 112.3 113.655 112.768 113.503C113.201 113.348 113.583 113.085 113.874 112.741C114.021 112.563 114.149 112.371 114.254 112.167C114.35 111.945 114.427 111.715 114.483 111.48C114.542 111.233 114.581 110.981 114.597 110.728C114.597 110.703 114.597 110.648 114.597 110.648V110.609C114.597 110.574 114.597 110.525 114.58 110.477C114.561 110.362 114.535 110.247 114.503 110.135C114.434 109.89 114.342 109.652 114.231 109.422C114.115 109.184 113.982 108.955 113.834 108.735C113.55 108.306 113.192 107.926 112.775 107.612C112.576 107.461 112.361 107.331 112.133 107.225L111.908 107.115C111.801 107.065 111.699 107.008 111.602 106.945C111.412 106.823 111.235 106.683 111.074 106.528C110.919 106.377 110.779 106.213 110.653 106.038C110.59 105.951 110.532 105.861 110.499 105.806L110.371 105.609L109.87 104.822L108.862 103.251L108.734 103.057L108.67 102.957L108.636 102.903L108.566 102.777C108.389 102.427 108.349 102.029 108.454 101.653C108.559 101.278 108.802 100.952 109.137 100.735C109.175 100.71 109.214 100.688 109.255 100.667L109.332 100.625L109.49 100.551C109.6 100.503 109.712 100.461 109.826 100.425C110.278 100.284 110.758 100.244 111.228 100.306C111.458 100.34 111.684 100.397 111.901 100.477C112.008 100.516 112.119 100.567 112.22 100.612L112.432 100.719L126.095 107.474L127.803 108.315L128.657 108.738L129.084 108.951L129.192 109.003H129.222C129.242 109.003 129.262 109.003 129.279 109.022C129.355 109.033 129.432 109.018 129.498 108.981C129.564 108.945 129.615 108.887 129.642 108.819C129.642 108.819 129.642 108.783 129.642 108.767C129.644 108.757 129.644 108.748 129.642 108.738C129.646 108.719 129.646 108.699 129.642 108.68V99.9575L129.622 40.9708V30.1774C129.625 30.1226 129.625 30.0677 129.622 30.0129C129.574 29.5738 129.401 29.1558 129.122 28.8043C128.844 28.4529 128.47 28.1814 128.042 28.0193C127.932 27.9795 127.82 27.9461 127.706 27.9193C127.672 27.9193 127.676 27.9193 127.659 27.9193C127.642 27.9193 127.659 27.9193 127.659 27.9193H127.608H127.504C127.238 27.9193 126.922 27.9548 126.623 27.9774C126.011 28.0387 125.389 28.1193 124.771 28.2097C123.53 28.3968 122.29 28.6161 121.056 28.8774C118.585 29.3903 116.134 30.0193 113.71 30.7322C94.1892 36.544 76.8527 47.6792 63.8135 62.7803L62.6133 64.1965C62.2132 64.6707 61.8064 65.1352 61.4365 65.6287L59.1604 68.5577L57.0087 71.5738L56.7398 71.9512L56.6053 72.1383C56.5649 72.1996 56.5414 72.2448 56.5044 72.2964C56.3783 72.5006 56.2747 72.7168 56.1951 72.9416C56.0336 73.3976 55.9763 73.8817 56.027 74.3609C56.071 74.8426 56.2212 75.3099 56.4674 75.7319C56.683 76.1321 57.01 76.4671 57.4122 76.6996C57.5125 76.7552 57.6157 76.8058 57.7215 76.8512C57.8257 76.8931 57.9232 76.9254 58.0913 76.9802L59.0024 77.2706L60.828 77.8544L68.1169 80.1834L67.4815 82.0125L60.1926 79.6802L58.3704 79.0996L57.4559 78.806C57.3248 78.7641 57.1197 78.6996 56.928 78.6222C56.74 78.5422 56.557 78.4517 56.38 78.3512C55.6727 77.9472 55.092 77.3677 54.699 76.6738C54.3226 76.018 54.0935 75.2939 54.0266 74.548C53.9496 73.8006 54.0402 73.0461 54.2922 72.3351C54.4133 71.979 54.5757 71.6371 54.7763 71.3158C54.8234 71.2383 54.8772 71.148 54.9243 71.0803L55.0621 70.89L55.3344 70.5061L57.5231 67.4352L59.8429 64.4513C60.2195 63.9481 60.6364 63.4836 61.0432 62.99L62.267 61.5481C75.5591 46.1601 93.2313 34.8162 113.128 28.9C115.602 28.1709 118.104 27.529 120.642 27.0032C121.908 26.7258 123.185 26.4957 124.471 26.3129C125.117 26.2161 125.766 26.1355 126.428 26.0677C126.764 26.0419 127.101 26.0065 127.464 26H127.598H127.773C127.917 26.0076 128.061 26.0227 128.203 26.0452C128.403 26.0933 128.598 26.1547 128.788 26.229C129.556 26.5225 130.225 27.0113 130.724 27.6429C131.223 28.2745 131.532 29.0248 131.619 29.8129C131.633 29.9102 131.639 30.0083 131.639 30.1064V30.2548V40.9741L131.66 99.9575V108.715C131.66 108.741 131.66 108.825 131.66 108.886C131.66 108.948 131.66 109.019 131.639 109.086C131.619 109.22 131.585 109.352 131.538 109.48C131.35 109.995 130.974 110.426 130.48 110.696C129.985 110.965 129.406 111.053 128.849 110.944C128.711 110.915 128.576 110.875 128.445 110.825L128.257 110.741L128.153 110.69L127.726 110.48L126.912 110.054L125.204 109.209L111.524 102.457L111.309 102.351C111.271 102.332 111.232 102.315 111.191 102.299C111.114 102.27 111.032 102.251 110.949 102.241C110.782 102.218 110.612 102.232 110.452 102.283L110.337 102.325C110.317 102.333 110.298 102.343 110.28 102.354H110.253C110.237 102.354 110.253 102.354 110.253 102.354C110.321 102.311 110.37 102.246 110.391 102.17C110.412 102.095 110.404 102.015 110.368 101.945C110.368 101.936 110.368 101.927 110.368 101.919L110.395 101.964L110.458 102.061L110.583 102.257L111.591 103.828L112.096 104.612L112.22 104.809L112.321 104.964C112.378 105.042 112.441 105.115 112.509 105.183C112.575 105.246 112.647 105.302 112.724 105.351C112.759 105.376 112.796 105.398 112.835 105.415L113.037 105.509C113.385 105.674 113.714 105.873 114.019 106.103C114.611 106.55 115.121 107.088 115.528 107.696C115.729 107.991 115.908 108.299 116.063 108.619C116.222 108.947 116.352 109.288 116.45 109.638C116.505 109.821 116.548 110.008 116.577 110.196C116.596 110.303 116.608 110.411 116.614 110.519C116.618 110.581 116.618 110.643 116.614 110.706C116.614 110.783 116.614 110.806 116.614 110.857C116.592 111.217 116.538 111.574 116.453 111.925C116.369 112.291 116.247 112.647 116.09 112.99C115.914 113.334 115.698 113.658 115.448 113.957C114.927 114.57 114.246 115.039 113.474 115.315C112.728 115.566 111.934 115.657 111.147 115.581C110.361 115.505 109.601 115.265 108.922 114.877L108.673 114.732L108.549 114.657C108.498 114.626 108.448 114.591 108.401 114.554C108.237 114.428 108.082 114.293 107.937 114.148C107.674 113.881 107.438 113.592 107.231 113.283C107.011 112.964 106.833 112.621 106.7 112.261C106.574 111.919 106.48 111.567 106.417 111.209C106.384 111.032 106.36 110.861 106.34 110.686L106.296 110.248C106.258 109.98 106.205 109.714 106.138 109.451C105.995 108.903 105.815 108.364 105.6 107.838L105.678 107.986L99.8109 98.8446L98.335 96.5543C98.2072 96.3478 98.1164 96.2123 97.9988 96.0543C97.8839 95.9048 97.7604 95.7616 97.6289 95.6252C97.4932 95.4854 97.3483 95.3539 97.1952 95.2317C97.0305 95.093 96.859 94.9511 96.6943 94.8253C96.0434 94.3037 95.326 93.8636 94.5594 93.5156C94.2026 93.3599 93.8295 93.2409 93.4466 93.1608C93.2693 93.1254 93.0895 93.1038 92.9086 93.0962C92.7594 93.0869 92.6096 93.0923 92.4615 93.1124C92.2656 93.1502 92.093 93.2602 91.9807 93.4188C91.9379 93.4743 91.9123 93.5403 91.9067 93.6091C91.9007 93.6823 91.9146 93.7556 91.9471 93.822C92.0022 93.9439 92.0746 94.0579 92.1623 94.1607C92.2093 94.2188 92.2698 94.2866 92.3236 94.3414C92.3695 94.3847 92.4177 94.4256 92.4682 94.464C92.7114 94.6362 92.9958 94.7472 93.2953 94.7865L93.5071 94.822L93.739 94.8704C93.8882 94.9094 94.0352 94.9557 94.1795 95.0091C94.4533 95.1114 94.7166 95.2378 94.9662 95.3865C95.4285 95.6608 95.8561 95.9855 96.2404 96.3543C97.0125 97.088 97.605 97.9772 97.9752 98.9575C98.3563 99.9661 98.4515 101.054 98.2509 102.109C98.1435 102.669 97.9267 103.204 97.6121 103.686C97.2863 104.179 96.8568 104.601 96.3514 104.925C95.3812 105.519 94.2428 105.809 93.0935 105.754C91.9842 105.724 90.9012 105.423 89.9467 104.88C89.4473 104.592 89.0009 104.227 88.6254 103.799C88.2959 103.404 88.0013 102.983 87.7445 102.541C87.2375 101.659 86.8907 100.7 86.7191 99.7059C86.6754 99.4575 86.6451 99.2091 86.625 98.9575C86.625 98.8317 86.6048 98.7059 86.6014 98.5801V98.2381C86.595 97.944 86.513 97.6559 86.3627 97.3994L84.9002 95.1736L81.908 90.635L80.4085 88.3769L80.2236 88.0931L80.1463 87.9801C80.1269 87.9509 80.1056 87.9229 80.0824 87.8963C79.9542 87.7371 79.7924 87.6056 79.6076 87.5106C79.4228 87.4155 79.2191 87.359 79.0099 87.3447C78.8351 87.3189 78.1896 87.3995 77.6987 87.4027C77.4365 87.4027 77.1776 87.4027 76.9154 87.3801C76.6531 87.3576 76.3842 87.3285 76.1186 87.2834C75.0143 87.1181 73.9792 86.6625 73.1283 85.9673C72.2773 85.2721 71.6436 84.3644 71.2974 83.3447C71.1187 82.8584 70.9925 82.3558 70.9209 81.8447C70.7687 80.7287 71.0215 79.5965 71.637 78.6383C71.7109 78.5222 71.8017 78.3996 71.8757 78.3157L72.0841 78.0415L72.5044 77.4931C73.0647 76.7684 73.6396 76.0512 74.2291 75.3415C75.4036 73.9222 76.6251 72.5416 77.8937 71.1996L79.3898 72.4738Z" fill="#FFB30B"/>
<path d="M126.145 48.0571C126.145 48.0571 103.451 49.1217 82.95 67.3571" stroke="#FBB30B" stroke-width="2.75714" stroke-miterlimit="10"/>
<path d="M100.412 71.9524C102.442 71.9524 104.088 70.2036 104.088 68.0464C104.088 65.8892 102.442 64.1405 100.412 64.1405C98.3816 64.1405 96.7357 65.8892 96.7357 68.0464C96.7357 70.2036 98.3816 71.9524 100.412 71.9524Z" stroke="#FBB30B" stroke-width="2.75714" stroke-miterlimit="10"/>
<path d="M121.32 79.3048C123.477 79.3048 125.226 77.6589 125.226 75.6286C125.226 73.5983 123.477 71.9524 121.32 71.9524C119.163 71.9524 117.414 73.5983 117.414 75.6286C117.414 77.6589 119.163 79.3048 121.32 79.3048Z" stroke="#FBB30B" stroke-width="2.75714" stroke-miterlimit="10"/>
<path d="M121.09 100.902C123.121 100.902 124.767 99.0507 124.767 96.7667C124.767 94.4826 123.121 92.6309 121.09 92.6309C119.06 92.6309 117.414 94.4826 117.414 96.7667C117.414 99.0507 119.06 100.902 121.09 100.902Z" stroke="#FBB30B" stroke-width="2.75714" stroke-miterlimit="10"/>
<path d="M107.075 91.7119C110.755 91.7119 113.738 88.8316 113.738 85.2786C113.738 81.7255 110.755 78.8452 107.075 78.8452C103.395 78.8452 100.412 81.7255 100.412 85.2786C100.412 88.8316 103.395 91.7119 107.075 91.7119Z" stroke="#FBB30B" stroke-width="2.75714" stroke-miterlimit="10"/>
<path d="M117.874 63.6809C120.158 63.6809 122.01 61.9322 122.01 59.775C122.01 57.6178 120.158 55.869 117.874 55.869C115.59 55.869 113.738 57.6178 113.738 59.775C113.738 61.9322 115.59 63.6809 117.874 63.6809Z" stroke="#FBB30B" stroke-width="2.75714" stroke-miterlimit="10"/>
<path d="M88.694 85.2785C90.8512 85.2785 92.6 83.6327 92.6 81.6024C92.6 79.572 90.8512 77.9262 88.694 77.9262C86.5368 77.9262 84.7881 79.572 84.7881 81.6024C84.7881 83.6327 86.5368 85.2785 88.694 85.2785Z" stroke="#FBB30B" stroke-width="2.75714" stroke-miterlimit="10"/>
<path d="M80.8822 73.7905C83.0394 73.7905 84.7881 72.0417 84.7881 69.8845C84.7881 67.7273 83.0394 65.9785 80.8822 65.9785C78.725 65.9785 76.9762 67.7273 76.9762 69.8845C76.9762 72.0417 78.725 73.7905 80.8822 73.7905Z" stroke="#FBB30B" stroke-width="2.75714" stroke-miterlimit="10"/>
<path d="M67.7857 91.7119C68.2933 91.7119 68.7048 91.1976 68.7048 90.5631C68.7048 89.9286 68.2933 89.4143 67.7857 89.4143C67.2781 89.4143 66.8667 89.9286 66.8667 90.5631C66.8667 91.1976 67.2781 91.7119 67.7857 91.7119Z" fill="#FBB30B"/>
<path d="M125.915 52.6524C126.55 52.6524 127.064 52.138 127.064 51.5036C127.064 50.8691 126.55 50.3548 125.915 50.3548C125.281 50.3548 124.767 50.8691 124.767 51.5036C124.767 52.138 125.281 52.6524 125.915 52.6524Z" fill="#FBB30B"/>
<path d="M111.9 138.583C111.9 138.583 116.258 129.561 135.447 113.127C135.947 112.703 136.453 112.262 136.909 111.805L200.909 50.3548H223.105L150.315 120.782L111.9 138.583Z" fill="#FBB30B"/>
<path d="M148.892 116.067C125.416 116.067 106.386 135.611 106.386 159.721C106.386 183.832 125.416 203.376 148.892 203.376C172.367 203.376 191.398 183.832 191.398 159.721C191.398 135.611 172.367 116.067 148.892 116.067ZM148.892 188.252C133.549 188.252 121.112 175.479 121.112 159.721C121.112 143.964 133.549 131.191 148.892 131.191C164.234 131.191 176.671 143.964 176.671 159.721C176.671 175.479 164.241 188.252 148.892 188.252Z" fill="#FBB30B"/>
</g>
<defs>
<filter id="filter0_d_8_58" x="-100" y="-90" width="495" height="495" filterUnits="userSpaceOnUse" color-interpolation-filters="sRGB">
<feFlood flood-opacity="0" result="BackgroundImageFix"/>
<feColorMatrix in="SourceAlpha" type="matrix" values="0 0 0 0 0 0 0 0 0 0 0 0 0 0 0 0 0 0 127 0" result="hardAlpha"/>
<feOffset dy="10"/>
<feGaussianBlur stdDeviation="50"/>
<feComposite in2="hardAlpha" operator="out"/>
<feColorMatrix type="matrix" values="0 0 0 0 0 0 0 0 0 0 0 0 0 0 0 0 0 0 0.5 0"/>
<feBlend mode="normal" in2="BackgroundImageFix" result="effect1_dropShadow_8_58"/>
<feBlend mode="normal" in="SourceGraphic" in2="effect1_dropShadow_8_58" result="shape"/>
</filter>
</defs>
</svg>
