<svg width="193" height="223" viewBox="0 0 193 223" fill="none" xmlns="http://www.w3.org/2000/svg">
<path d="M3.63255 203.278C3.98178 204.5 5.33508 205.024 6.68838 205.198C7.43051 205.329 8.25995 205.329 9.1767 205.286C8.47823 203.583 8.91477 199.698 9.74421 195.289C16.0305 196.336 22.4914 193.455 24.3686 184.943C26.464 175.731 15.2447 170.144 9.1767 172.414C6.51376 173.33 5.37874 174.989 4.89853 176.43C4.63661 177.259 4.5493 178.089 4.63661 179.006C6.25183 175.644 10.6173 174.422 14.3716 175.731C24.3249 179.049 17.3401 192.189 10.0935 193.412C11.2721 187.475 12.8437 181.363 13.1929 179.006C13.3676 177.958 12.0579 177.259 10.661 176.997C9.22036 176.735 7.69244 176.823 7.51782 177.347C8.04168 178.132 6.81934 183.196 5.59701 188.697C4.33102 194.197 3.196 200.309 3.63255 203.278ZM26.6669 180.577C29.0679 179.529 31.8618 180.97 33.3461 182.454L33.9136 180.577C34.4811 179.049 34.6994 176.866 31.6436 176.037C31.1197 175.95 30.5958 175.95 30.1156 175.993C29.2862 176.124 28.3258 176.474 27.8019 177.521L26.6669 180.577ZM35.1359 193.368C33.5207 196.38 30.072 201.226 29.4608 201.706C29.7227 199.043 30.0283 196.598 30.3776 194.372C30.9887 190.574 31.8182 186.471 32.8222 185.205C30.7705 183.851 27.8019 181.581 26.4923 185.205C26.0121 187.78 25.5755 190.181 25.1827 192.495C24.5715 196.467 23.9167 200.964 23.9167 203.321C23.9167 204.631 26.1431 205.766 28.3258 205.417C29.6791 205.242 31.5563 202.928 32.9969 200.746C33.87 199.48 34.743 198.039 35.6161 196.424L35.1359 193.368ZM40.9686 200.222C44.4174 196.773 50.2234 193.935 52.1879 189.876C53.5849 186.951 49.1321 183.939 46.993 183.458C44.461 182.891 36.7778 189.395 34.8133 193.368L35.3372 196.424C37.7818 192.058 40.7067 190.181 42.9767 189.352C44.33 188.872 45.6833 188.653 46.993 188.784C46.6437 189.395 44.0681 192.189 41.4488 194.721C39.9646 196.249 38.3057 197.952 36.4285 199.785C35.7301 202.012 38.262 203.54 40.0082 204.238C38.8732 204.806 37.8255 205.417 36.8214 205.984C35.0752 206.988 33.1544 208.298 32.1504 209.389C29.4874 212.401 29.4438 216.199 33.329 217.116C42.5402 218.338 53.192 206.333 46.5128 202.623C47.6478 201.924 48.6955 201.226 49.6996 200.484C51.4021 199.218 53.192 197.69 53.8468 196.424L53.3666 193.368C51.926 195.944 49.6996 197.864 47.7788 199.218C46.6874 200.047 45.5087 200.746 44.33 201.313L40.9686 200.222ZM33.1108 212.314C33.2417 210.874 36.2976 209.127 42.1037 205.198C42.6712 205.417 43.3696 205.941 42.8021 207.818C41.929 210.393 32.7615 216.156 33.1108 212.314ZM59.3855 200.222C62.8342 196.773 68.6403 193.935 70.6048 189.876C72.0017 186.951 67.5489 183.939 65.4098 183.458C62.8779 182.891 55.1946 189.395 53.2302 193.368L53.754 196.424C56.1987 192.058 59.1236 190.181 61.3936 189.352C62.7469 188.872 64.1002 188.653 65.4098 188.784C65.0606 189.395 62.485 192.189 59.8657 194.721C58.3814 196.249 56.7225 197.952 54.8454 199.785C54.1469 202.012 56.6789 203.54 58.4251 204.238C57.2901 204.806 56.2423 205.417 55.2383 205.984C53.4921 206.988 51.5713 208.298 50.5672 209.389C47.9043 212.401 47.8606 216.199 51.7459 217.116C60.9571 218.338 71.6088 206.333 64.9296 202.623C66.0647 201.924 67.1124 201.226 68.1164 200.484C69.819 199.218 71.6088 197.69 72.2636 196.424L71.7834 193.368C70.3428 195.944 68.1164 197.864 66.1956 199.218C65.1043 200.047 63.9256 200.746 62.7469 201.313L59.3855 200.222ZM51.5276 212.314C51.6586 210.874 54.7144 209.127 60.5205 205.198C61.088 205.417 61.7865 205.941 61.219 207.818C60.3459 210.393 51.1784 216.156 51.5276 212.314ZM79.6764 199.873C79.5455 201.051 79.4582 201.706 79.6328 202.885C79.7637 204.5 82.1647 205.155 84.4784 204.936C85.5262 204.936 87.0541 202.885 88.3201 200.702C89.5861 198.563 90.6338 196.424 90.6338 196.424L90.1536 193.368L85.3079 201.182C85.3515 198.432 85.6135 194.503 86.181 191.185C86.7485 187.911 87.7089 185.292 89.1059 185.117C85.9627 182.804 83.0378 181.756 81.8592 185.117C81.9028 185.51 81.6409 186.252 81.6409 186.601L78.847 184.331C78.4541 183.982 77.712 183.633 76.8825 183.764L74.7871 183.982C73.2155 184.157 72.6917 185.379 71.9932 186.732C70.0724 190.923 69.4612 196.511 70.0287 203.147C70.247 205.504 76.4023 205.286 77.2318 204.238L79.6764 199.873ZM75.18 202.23C74.8307 198.868 75.4419 191.709 77.581 186.645C77.9302 185.947 79.982 188.26 81.2043 189.57C80.9861 190.661 80.6805 191.796 80.4622 192.975L75.18 202.23ZM120.1 200.789C122.239 198.039 123.331 194.983 123.549 193.412C123.898 191.971 123.2 191.36 122.37 191.054C121.89 190.923 121.323 190.836 120.668 190.88C121.235 192.8 120.188 195.944 118.223 198.432C117.699 197.733 117.35 197.297 117.001 196.948C115.779 195.332 114.949 193.717 114.294 192.189L116.652 189.963C117.918 188.741 119.751 186.383 120.712 183.895C121.672 181.45 121.803 178.831 119.882 177.259C116.39 174.204 112.024 176.299 110.278 180.883C108.75 184.55 109.23 188.304 110.584 191.971C103.424 196.336 102.638 201.75 105.039 204.762C107.397 207.818 112.766 208.473 117.656 203.234C118.572 204.282 119.402 205.155 119.969 205.722C120.319 206.072 120.624 206.377 120.93 206.639C121.323 206.202 121.628 205.81 121.847 205.417C122.239 204.718 122.545 203.932 122.065 203.409L120.1 200.789ZM113.465 189.657C111.806 183.109 114.644 178.394 115.822 178.263C119.009 178.962 117.612 185.248 113.465 189.657ZM115.691 200.833C112.81 204.325 109.972 204.806 108.75 203.365C107.528 201.924 107.921 198.607 111.762 194.678C112.941 196.948 114.338 199.043 115.691 200.833ZM143.433 190.618C145.79 191.316 150.461 193.63 148.497 198.432C146.401 203.583 142.254 202.841 139.024 202.71C138.456 202.579 138.107 203.234 139.111 203.627C140.333 204.282 142.167 204.587 144.044 204.893C150.505 205.81 153.735 201.531 154.434 196.948C155.482 190.181 148.497 189.701 149.326 189.308C155.613 186.863 157.926 182.498 157.228 178.744C156.573 175.033 152.95 171.803 147.362 171.89C139.635 172.064 137.103 174.596 137.976 179.791C139.853 174.16 151.378 173.243 151.902 179.529C152.251 182.891 149.152 187.213 143.826 188.26C144.699 185.161 145.659 182.498 146.139 181.232C146.838 179.791 145.572 178.787 144.175 178.132C143.346 177.783 142.341 177.478 141.163 177.259C141.163 180.184 139.286 184.55 137.67 193.979C136.885 199.043 138.107 201.051 139.635 201.662C140.464 202.055 141.512 202.055 142.734 201.662C141.206 200.003 141.992 195.245 143.127 190.618H143.433ZM165.068 199.873C164.937 201.051 164.849 201.706 165.024 202.885C165.155 204.5 167.556 205.155 169.87 204.936C170.917 204.936 172.445 202.885 173.711 200.702C174.977 198.563 176.025 196.424 176.025 196.424L175.545 193.368L170.699 201.182C170.743 198.432 171.005 194.503 171.572 191.185C172.14 187.911 173.1 185.292 174.497 185.117C171.354 182.804 168.429 181.756 167.25 185.117C167.294 185.51 167.032 186.252 167.032 186.601L164.238 184.331C163.845 183.982 163.103 183.633 162.274 183.764L160.178 183.982C158.607 184.157 158.083 185.379 157.384 186.732C155.463 190.923 154.852 196.511 155.42 203.147C155.638 205.504 161.793 205.286 162.623 204.238L165.068 199.873ZM160.571 202.23C160.222 198.868 160.833 191.709 162.972 186.645C163.321 185.947 165.373 188.26 166.595 189.57C166.377 190.661 166.072 191.796 165.853 192.975L160.571 202.23ZM175.977 196.424C176.544 195.682 177.112 194.678 177.679 193.499C178.596 191.447 179.731 188.304 180.473 183.764C180.473 183.72 181.084 183.939 181.652 184.157C181.957 184.288 182.35 184.462 182.787 184.681C182.219 186.907 179.775 193.892 179.906 199.043C180.037 204.063 180.168 204.5 183.791 204.718C187.414 205.067 190.034 200.178 191.911 196.424L191.431 193.368C189.335 197.253 186.716 201.662 185.755 201.531C184.664 201.357 188.375 187.082 188.899 184.593C188.986 183.982 188.986 183.327 188.855 182.673C188.724 182.018 188.244 181.581 187.414 181.363C184.62 182.367 182.918 182.847 181.39 181.799C182.569 178.787 179.164 177.434 178.465 182.323C177.941 185.947 177.155 188.697 176.588 190.574C176.239 191.665 175.889 192.582 175.497 193.368L175.977 196.424Z" fill="#FF192E"/>
<path d="M82.2613 0.459518H97.8786V65.1412L82.2548 80.4167L82.2613 0.459518Z" fill="#FF192E"/>
<path d="M124.105 74.4429L113.043 85.0698L170.144 141.993H192.54L124.105 74.4429Z" fill="#FF192E"/>
<path d="M25.3899 46.4738C24.1526 47.7835 22.9591 49.1308 21.8093 50.5157C21.2377 51.2082 20.6774 51.9093 20.1283 52.6189L19.7147 53.1673L19.513 53.4351C19.4491 53.5189 19.4054 53.577 19.3584 53.6512C18.9899 54.2308 18.8371 54.913 18.9246 55.5867C18.9774 55.9624 19.0698 56.332 19.2003 56.6899C19.4275 57.3876 19.8559 58.0093 20.436 58.4831C21.0161 58.9569 21.7242 59.2635 22.4783 59.3673C22.6733 59.4027 22.875 59.4124 23.0734 59.4415C23.2718 59.4705 23.4802 59.4415 23.6853 59.4576C23.8904 59.4737 24.1022 59.435 24.3073 59.4253C24.5932 59.3976 24.8809 59.39 25.168 59.4027C25.6575 59.4386 26.1339 59.5718 26.5669 59.7939C26.9999 60.0161 27.3799 60.3223 27.6828 60.6931C27.7332 60.7576 27.7803 60.8189 27.824 60.8834L27.9383 61.0511L28.1232 61.335L29.6193 63.593L32.6082 68.1253L33.3579 69.2607L33.7311 69.8285L33.9194 70.1091L34.0101 70.251C34.0505 70.3156 34.0942 70.3801 34.1312 70.4446C34.4357 70.9753 34.604 71.568 34.622 72.1736V72.4962C34.622 72.593 34.622 72.6897 34.6422 72.7897C34.6422 72.9833 34.6825 73.1801 34.7162 73.3736C34.8487 74.1493 35.1182 74.8977 35.513 75.5865C35.71 75.9257 35.9348 76.2493 36.1854 76.5542C36.4126 76.8119 36.6845 77.0302 36.9889 77.1994C38.2429 77.9381 40.1089 78.0219 41.2318 77.2962C41.5082 77.1154 41.7431 76.8822 41.9218 76.6109C42.1005 76.3395 42.2192 76.0359 42.2707 75.7188C42.4034 75.0029 42.3361 74.2661 42.0757 73.5833C41.6648 72.5215 40.9063 71.616 39.9139 71.0027C39.7678 70.9151 39.6136 70.8406 39.4533 70.7801C39.3807 70.7536 39.3066 70.731 39.2314 70.7123L39.1204 70.6865L38.986 70.6639C38.3561 70.5791 37.7584 70.3439 37.2478 69.9801C37.1136 69.8822 36.9877 69.7744 36.8712 69.6575C36.7663 69.5554 36.6676 69.4477 36.5754 69.3349C36.3701 69.0874 36.2015 68.8139 36.0744 68.522C35.9275 68.1746 35.8665 67.7992 35.8962 67.4253C35.9324 67.0454 36.0652 66.6799 36.2829 66.3608C36.4819 66.063 36.7413 65.8068 37.0457 65.6073C37.3501 65.4077 37.6932 65.2691 38.0547 65.1995C38.3661 65.1449 38.6833 65.1265 38.9994 65.1446C39.2851 65.1577 39.5694 65.1911 39.85 65.2446C40.3784 65.3552 40.8934 65.5185 41.3864 65.7317C42.31 66.15 43.1752 66.6777 43.9618 67.3027C44.1568 67.4478 44.3417 67.6059 44.5266 67.7607C44.7301 67.9259 44.9232 68.1026 45.1049 68.2898C45.2915 68.4813 45.4656 68.6839 45.626 68.8962C45.784 69.0994 45.942 69.3446 46.053 69.522L47.5188 71.8091L53.3755 80.9606L53.4259 81.0348L53.4528 81.109C53.7021 81.7235 53.9098 82.3528 54.0748 82.9929C54.161 83.3268 54.2283 83.6649 54.2765 84.0058L54.3236 84.4864C54.3404 84.6187 54.3572 84.7509 54.3807 84.8767C54.4246 85.1255 54.4899 85.3705 54.5757 85.609C54.6616 85.8286 54.7745 86.0376 54.9119 86.2316C55.0533 86.439 55.213 86.6344 55.3894 86.8154C55.4655 86.892 55.5464 86.9642 55.6314 87.0316L55.6819 87.0638L55.7592 87.109L55.9239 87.2025C56.3464 87.4489 56.82 87.6035 57.3114 87.6553C57.8028 87.7072 58.3001 87.655 58.7682 87.5025C59.2011 87.348 59.583 87.0851 59.8743 86.7412C60.0214 86.563 60.1487 86.3706 60.2542 86.167C60.3505 85.9446 60.427 85.7148 60.4829 85.48C60.5423 85.2328 60.5806 84.9815 60.5972 84.7283C60.5972 84.7025 60.5972 84.6477 60.5972 84.6477V84.609C60.5972 84.5735 60.5972 84.5251 60.5804 84.4767C60.5609 84.3615 60.5351 84.2474 60.503 84.1348C60.4336 83.8902 60.3425 83.6517 60.2307 83.4219C60.115 83.1844 59.9825 82.9548 59.834 82.7348C59.55 82.3056 59.1919 81.926 58.7749 81.6122C58.5764 81.4609 58.3611 81.3311 58.1328 81.2252L57.9075 81.1155C57.8015 81.0655 57.6992 81.0083 57.6016 80.9445C57.4119 80.8227 57.2351 80.6833 57.0737 80.5284C56.9191 80.3769 56.7785 80.2129 56.6535 80.0381C56.5896 79.951 56.5325 79.8606 56.4988 79.8058L56.3711 79.609L55.8701 78.8219L54.8615 77.251L54.7338 77.0574L54.6699 76.9574L54.6363 76.9026L54.5657 76.7768C54.3887 76.4275 54.3491 76.0286 54.4541 75.6535C54.5591 75.2783 54.8017 74.9522 55.1372 74.7349C55.1752 74.7104 55.2145 74.6878 55.2549 74.6671L55.3322 74.6252L55.4902 74.551C55.5996 74.5028 55.7119 74.4607 55.8264 74.4252C56.2784 74.2844 56.7577 74.2436 57.2284 74.3059C57.4582 74.3397 57.6836 74.397 57.9008 74.4768C58.0084 74.5155 58.1193 74.5671 58.2202 74.6123L58.432 74.7188L72.0954 81.4735L73.8033 82.3155L74.6572 82.7381L75.0842 82.9509L75.1918 83.0026H75.222C75.2422 83.0026 75.2624 83.0026 75.2792 83.0219C75.3548 83.0327 75.4319 83.0184 75.4979 82.9815C75.5639 82.9445 75.6149 82.8871 75.6423 82.8187C75.6423 82.8187 75.6423 82.7832 75.6423 82.7671C75.644 82.7575 75.644 82.7477 75.6423 82.7381C75.6457 82.7188 75.6457 82.6992 75.6423 82.68V73.9575L75.6221 14.9708V4.17738C75.6255 4.12259 75.6255 4.06766 75.6221 4.01287C75.5737 3.57377 75.4009 3.15578 75.1223 2.80432C74.8437 2.45286 74.4701 2.18137 74.042 2.01934C73.9321 1.97946 73.8198 1.94607 73.7058 1.91934C73.6721 1.91934 73.6755 1.91934 73.6587 1.91934C73.6419 1.91934 73.6587 1.91934 73.6587 1.91934H73.6083H73.504C73.2384 1.91934 72.9224 1.95482 72.6232 1.9774C72.0113 2.03869 71.3893 2.11934 70.7707 2.20966C69.5301 2.39675 68.2895 2.61611 67.0556 2.8774C64.5845 3.39029 62.1336 4.01932 59.7096 4.73222C40.1892 10.544 22.8527 21.6792 9.81351 36.7803L8.61326 38.1965C8.21318 38.6707 7.80637 39.1352 7.43655 39.6287L5.16045 42.5577L3.00874 45.5738L2.73977 45.9512L2.60529 46.1383C2.56495 46.1996 2.54141 46.2448 2.50443 46.2964C2.37831 46.5006 2.27465 46.7168 2.19512 46.9416C2.03364 47.3976 1.97631 47.8817 2.02702 48.3609C2.07104 48.8426 2.22116 49.3099 2.46745 49.7319C2.68302 50.1321 3.01005 50.4671 3.41218 50.6996C3.51248 50.7552 3.61572 50.8058 3.72149 50.8512C3.82571 50.8931 3.92321 50.9254 4.09132 50.9802L5.00243 51.2706L6.82802 51.8544L14.1169 54.1834L13.4815 56.0125L6.19259 53.6802L4.37036 53.0996L3.45589 52.806C3.32477 52.7641 3.11968 52.6996 2.92805 52.6222C2.74001 52.5422 2.55703 52.4517 2.38003 52.3512C1.67275 51.9472 1.09204 51.3677 0.699014 50.6738C0.322554 50.018 0.093495 49.2939 0.0266052 48.548C-0.0503814 47.8006 0.0401796 47.0461 0.292207 46.3351C0.413333 45.979 0.575728 45.6371 0.776342 45.3158C0.82341 45.2383 0.877201 45.148 0.92427 45.0803L1.06211 44.89L1.33444 44.5061L3.52313 41.4352L5.84294 38.4513C6.21949 37.9481 6.63638 37.4836 7.04319 36.99L8.26697 35.5481C21.5591 20.1601 39.2313 8.81619 59.1279 2.89998C61.6024 2.17095 64.1038 1.52902 66.6421 1.00322C67.9085 0.725801 69.1849 0.495695 70.4715 0.312901C71.117 0.216128 71.7659 0.135482 72.4282 0.0677411C72.7644 0.0419349 73.1006 0.00645156 73.4637 0H73.5982H73.773C73.9172 0.00761596 74.0609 0.0226913 74.2033 0.0451607C74.4026 0.0932945 74.598 0.154734 74.7883 0.22903C75.5556 0.522458 76.2248 1.01134 76.7236 1.64292C77.2225 2.27451 77.5322 3.02481 77.6192 3.81287C77.6325 3.9102 77.6393 4.00825 77.6394 4.10642V4.25481V14.9741L77.6595 73.9575V82.7155C77.6595 82.7413 77.6595 82.8251 77.6595 82.8864C77.6595 82.9477 77.6595 83.0187 77.6394 83.0864C77.6189 83.2204 77.5851 83.3522 77.5385 83.48C77.3501 83.9946 76.974 84.4264 76.4796 84.6956C75.9852 84.9648 75.4059 85.0532 74.8489 84.9445C74.7113 84.9149 74.5764 84.875 74.4454 84.8251L74.2571 84.7413L74.1529 84.6896L73.7259 84.48L72.9123 84.0542L71.2044 83.209L57.5243 76.4575L57.3091 76.351C57.2709 76.3317 57.2316 76.3145 57.1914 76.2994C57.1136 76.2702 57.0323 76.2507 56.9493 76.2413C56.7823 76.2181 56.612 76.2325 56.4518 76.2833L56.3375 76.3252C56.3174 76.3329 56.2982 76.3426 56.2803 76.3542H56.2534C56.2366 76.3542 56.2534 76.3542 56.2534 76.3542C56.321 76.3109 56.37 76.2456 56.3912 76.1704C56.4122 76.0948 56.4038 76.0146 56.3677 75.9445C56.3683 75.936 56.3683 75.9273 56.3677 75.9187L56.3946 75.9639L56.4585 76.0607L56.5829 76.2574L57.5915 77.8284L58.0958 78.6123L58.2202 78.809L58.3211 78.9639C58.3776 79.0417 58.4405 79.1151 58.5093 79.1832C58.5753 79.2456 58.6473 79.3018 58.7245 79.351C58.759 79.3762 58.7962 79.3978 58.8355 79.4155L59.0372 79.509C59.3849 79.6738 59.7139 79.8727 60.0189 80.1026C60.6107 80.5497 61.1209 81.0882 61.5285 81.6961C61.7294 81.991 61.908 82.2993 62.063 82.6187C62.2224 82.9471 62.3518 83.2881 62.4496 83.638C62.505 83.8212 62.5477 84.0076 62.5774 84.1961C62.5959 84.3029 62.6082 84.4106 62.6144 84.5187C62.6179 84.581 62.6179 84.6434 62.6144 84.7058C62.6144 84.7832 62.6144 84.8058 62.6144 84.8574C62.5918 85.217 62.5378 85.5742 62.453 85.9251C62.3687 86.2905 62.2471 86.6471 62.0899 86.9896C61.9137 87.3339 61.6983 87.6585 61.4478 87.9574C60.9275 88.5704 60.2462 89.0392 59.4742 89.3154C58.7282 89.5663 57.9339 89.657 57.1474 89.5812C56.3608 89.5054 55.6012 89.2649 54.922 88.8767L54.6732 88.7315L54.5489 88.6573C54.4976 88.6255 54.4482 88.5911 54.4009 88.5541C54.2372 88.4284 54.0823 88.2927 53.937 88.1477C53.6744 87.881 53.438 87.5916 53.2309 87.2832C53.0114 86.9642 52.8331 86.6208 52.6997 86.2606C52.5742 85.9185 52.4797 85.5667 52.4173 85.209C52.3837 85.0316 52.3602 84.8606 52.34 84.6864L52.2963 84.2477C52.258 83.9797 52.2053 83.7137 52.1383 83.4509C51.9945 82.903 51.8149 82.3643 51.6003 81.8381L51.6777 81.9864L45.8109 72.8446L44.335 70.5543C44.2072 70.3478 44.1164 70.2123 43.9988 70.0543C43.8839 69.9048 43.7604 69.7616 43.6289 69.6252C43.4932 69.4854 43.3483 69.3539 43.1952 69.2317C43.0305 69.093 42.859 68.9511 42.6943 68.8253C42.0434 68.3037 41.326 67.8636 40.5594 67.5156C40.2026 67.3599 39.8295 67.2409 39.4466 67.1608C39.2693 67.1254 39.0895 67.1038 38.9086 67.0962C38.7594 67.0869 38.6096 67.0923 38.4615 67.1124C38.2656 67.1502 38.093 67.2602 37.9807 67.4188C37.9379 67.4743 37.9123 67.5403 37.9067 67.6091C37.9007 67.6823 37.9146 67.7556 37.9471 67.822C38.0022 67.9439 38.0746 68.0579 38.1623 68.1607C38.2093 68.2188 38.2698 68.2866 38.3236 68.3414C38.3695 68.3847 38.4177 68.4256 38.4682 68.464C38.7114 68.6362 38.9958 68.7472 39.2953 68.7865L39.5071 68.822L39.739 68.8704C39.8882 68.9094 40.0352 68.9557 40.1795 69.0091C40.4533 69.1114 40.7166 69.2378 40.9662 69.3865C41.4285 69.6608 41.8561 69.9855 42.2404 70.3543C43.0125 71.088 43.605 71.9772 43.9752 72.9575C44.3563 73.9661 44.4515 75.0536 44.2509 76.1091C44.1435 76.6688 43.9267 77.204 43.6121 77.6865C43.2863 78.179 42.8568 78.6009 42.3514 78.9252C41.3812 79.5188 40.2428 79.8085 39.0935 79.7542C37.9842 79.724 36.9012 79.4231 35.9467 78.88C35.4473 78.5919 35.0009 78.2268 34.6254 77.7994C34.2959 77.4042 34.0013 76.9834 33.7445 76.5413C33.2375 75.6589 32.8907 74.7 32.7191 73.7059C32.6754 73.4575 32.6451 73.2091 32.625 72.9575C32.625 72.8317 32.6048 72.7059 32.6014 72.5801V72.2381C32.595 71.944 32.513 71.6559 32.3627 71.3994L30.9002 69.1736L27.908 64.635L26.4085 62.3769L26.2236 62.0931L26.1463 61.9801C26.1269 61.9509 26.1056 61.9229 26.0824 61.8963C25.9542 61.7371 25.7924 61.6056 25.6076 61.5106C25.4228 61.4155 25.2191 61.359 25.0099 61.3447C24.8351 61.3189 24.1896 61.3995 23.6987 61.4027C23.4365 61.4027 23.1776 61.4027 22.9154 61.3801C22.6531 61.3576 22.3842 61.3285 22.1186 61.2834C21.0143 61.1181 19.9792 60.6625 19.1283 59.9673C18.2773 59.2721 17.6436 58.3644 17.2974 57.3447C17.1187 56.8584 16.9925 56.3558 16.9209 55.8447C16.7687 54.7287 17.0215 53.5965 17.637 52.6383C17.7109 52.5222 17.8017 52.3996 17.8757 52.3157L18.0841 52.0415L18.5044 51.4931C19.0647 50.7684 19.6396 50.0512 20.2291 49.3415C21.4036 47.9222 22.6251 46.5416 23.8937 45.1996L25.3899 46.4738Z" fill="#FFB30B"/>
<path d="M72.1452 22.0571C72.1452 22.0571 49.4508 23.1217 28.95 41.3571" stroke="#FBB30B" stroke-width="2.75714" stroke-miterlimit="10"/>
<path d="M46.4119 45.9524C48.4422 45.9524 50.0881 44.2036 50.0881 42.0464C50.0881 39.8892 48.4422 38.1405 46.4119 38.1405C44.3816 38.1405 42.7357 39.8892 42.7357 42.0464C42.7357 44.2036 44.3816 45.9524 46.4119 45.9524Z" stroke="#FBB30B" stroke-width="2.75714" stroke-miterlimit="10"/>
<path d="M67.3202 53.3048C69.4774 53.3048 71.2262 51.6589 71.2262 49.6286C71.2262 47.5983 69.4774 45.9524 67.3202 45.9524C65.163 45.9524 63.4143 47.5983 63.4143 49.6286C63.4143 51.6589 65.163 53.3048 67.3202 53.3048Z" stroke="#FBB30B" stroke-width="2.75714" stroke-miterlimit="10"/>
<path d="M67.0905 74.9024C69.1208 74.9024 70.7667 73.0507 70.7667 70.7667C70.7667 68.4826 69.1208 66.6309 67.0905 66.6309C65.0602 66.6309 63.4143 68.4826 63.4143 70.7667C63.4143 73.0507 65.0602 74.9024 67.0905 74.9024Z" stroke="#FBB30B" stroke-width="2.75714" stroke-miterlimit="10"/>
<path d="M53.075 65.7119C56.7549 65.7119 59.7381 62.8316 59.7381 59.2786C59.7381 55.7255 56.7549 52.8452 53.075 52.8452C49.3951 52.8452 46.4119 55.7255 46.4119 59.2786C46.4119 62.8316 49.3951 65.7119 53.075 65.7119Z" stroke="#FBB30B" stroke-width="2.75714" stroke-miterlimit="10"/>
<path d="M63.8738 37.6809C66.1579 37.6809 68.0095 35.9322 68.0095 33.775C68.0095 31.6178 66.1579 29.869 63.8738 29.869C61.5897 29.869 59.7381 31.6178 59.7381 33.775C59.7381 35.9322 61.5897 37.6809 63.8738 37.6809Z" stroke="#FBB30B" stroke-width="2.75714" stroke-miterlimit="10"/>
<path d="M34.694 59.2785C36.8512 59.2785 38.6 57.6327 38.6 55.6024C38.6 53.572 36.8512 51.9262 34.694 51.9262C32.5368 51.9262 30.7881 53.572 30.7881 55.6024C30.7881 57.6327 32.5368 59.2785 34.694 59.2785Z" stroke="#FBB30B" stroke-width="2.75714" stroke-miterlimit="10"/>
<path d="M26.8822 47.7905C29.0394 47.7905 30.7881 46.0417 30.7881 43.8845C30.7881 41.7273 29.0394 39.9785 26.8822 39.9785C24.725 39.9785 22.9762 41.7273 22.9762 43.8845C22.9762 46.0417 24.725 47.7905 26.8822 47.7905Z" stroke="#FBB30B" stroke-width="2.75714" stroke-miterlimit="10"/>
<path d="M13.7857 65.7119C14.2933 65.7119 14.7048 65.1976 14.7048 64.5631C14.7048 63.9286 14.2933 63.4143 13.7857 63.4143C13.2781 63.4143 12.8667 63.9286 12.8667 64.5631C12.8667 65.1976 13.2781 65.7119 13.7857 65.7119Z" fill="#FBB30B"/>
<path d="M71.9155 26.6524C72.5499 26.6524 73.0643 26.138 73.0643 25.5036C73.0643 24.8691 72.5499 24.3548 71.9155 24.3548C71.281 24.3548 70.7666 24.8691 70.7666 25.5036C70.7666 26.138 71.281 26.6524 71.9155 26.6524Z" fill="#FBB30B"/>
<path d="M57.9 112.583C57.9 112.583 62.2581 103.561 81.447 87.1275C81.9465 86.7029 82.4527 86.2622 82.9087 85.8053L146.909 24.3548H169.105L96.3148 94.7821L57.9 112.583Z" fill="#FBB30B"/>
<path d="M94.8917 90.0667C71.4163 90.0667 52.3857 109.611 52.3857 133.721C52.3857 157.832 71.4163 177.376 94.8917 177.376C118.367 177.376 137.398 157.832 137.398 133.721C137.398 109.611 118.367 90.0667 94.8917 90.0667ZM94.8917 162.252C79.5494 162.252 67.1122 149.479 67.1122 133.721C67.1122 117.964 79.5494 105.191 94.8917 105.191C110.234 105.191 122.671 117.964 122.671 133.721C122.671 149.479 110.241 162.252 94.8917 162.252Z" fill="#FBB30B"/>
</svg>
