<svg id="Layer_1" data-name="Layer 1" xmlns="http://www.w3.org/2000/svg" viewBox="0 0 40.62 40.62"><defs><style>.cls-1{fill:#fbb30b;stroke:#fff;stroke-miterlimit:10;}.cls-2{opacity:0.2;}.cls-3{fill:#231f20;}.cls-4{fill:#fff;}</style></defs><title>Mail</title><circle class="cls-1" cx="20.31" cy="20.31" r="19.81"/><g class="cls-2"><path class="cls-3" d="M92.17,96.75,90.11,98.5a.43.43,0,0,1-.56,0l-2.06-1.74-8.41,7.11h21.47Z" transform="translate(-69.5 -75.22)"/><polygon class="cls-3" points="8.79 13.74 8.79 28.11 17.26 20.93 8.79 13.74"/><polygon class="cls-3" points="9.57 13.21 20.31 22.32 31.04 13.21 9.57 13.21"/><polygon class="cls-3" points="23.36 20.93 31.83 28.11 31.83 13.74 23.36 20.93"/></g><path class="cls-4" d="M92.17,96.13l-2.06,1.75a.43.43,0,0,1-.56,0l-2.06-1.74-8.41,7.11h21.47Z" transform="translate(-69.5 -75.22)"/><polygon class="cls-4" points="8.79 13.13 8.79 27.49 17.26 20.31 8.79 13.13"/><polygon class="cls-4" points="9.57 12.59 20.31 21.7 31.04 12.59 9.57 12.59"/><polygon class="cls-4" points="23.36 20.31 31.83 27.49 31.83 13.13 23.36 20.31"/></svg>