<svg width="41" height="41" viewBox="0 0 41 41" fill="none" xmlns="http://www.w3.org/2000/svg">
<path d="M20.4989 40.9978C31.8201 40.9978 40.9978 31.8201 40.9978 20.4989C40.9978 9.17767 31.8201 0 20.4989 0C9.17767 0 0 9.17767 0 20.4989C0 31.8201 9.17767 40.9978 20.4989 40.9978Z" fill="#BE1E2D"/>
<path d="M32.7414 11.631C32.7414 11.631 31.3565 11.1927 32.1388 12.9895C32.7545 14.3963 29.4721 15.8031 28.0412 16.3399C27.5197 15.7965 26.755 15.3845 25.6309 15.3276C25.6309 15.3276 27.9382 17.0608 29.1631 19.4054C29.1557 18.4736 28.8886 17.5622 28.3918 16.7738C28.9681 16.5218 31.8276 15.2399 32.748 14.4182C33.7647 13.4869 32.7414 11.631 32.7414 11.631Z" fill="white"/>
<path d="M26.6232 16.7541C26.6232 16.7541 23.4941 12.6105 19.5193 17.8694C15.5444 23.1283 8.92031 27.6817 8.92031 27.6817C8.92031 27.6817 1.87772 32.9889 10.487 30.7604C19.0964 28.5319 21.9274 27.6751 26.6232 25.0216C31.319 22.368 28.4091 18.0688 26.6232 16.7541ZM28.3455 21.6274C28.3455 21.6274 28.2075 24.7367 18.5902 27.9206C18.5902 27.9206 17.2754 28.0455 18.5902 27.4275C19.9049 26.8096 27.136 23.663 26.8993 21.6274C26.6627 19.5917 28.7465 20.6895 28.3455 21.6274Z" fill="white"/>
</svg>
