<svg id="Layer_1" data-name="Layer 1" xmlns="http://www.w3.org/2000/svg" viewBox="0 0 187.11 187.11"><defs><style>.cls-1{fill:#be1e2d;}.cls-2{fill:#fff;}</style></defs><title>Spicy Icon SVG</title><circle class="cls-1" cx="93.55" cy="93.55" r="93.55"/><path class="cls-2" d="M155.85,59.53s-6.32-2-2.75,6.2c2.81,6.42-12.17,12.84-18.7,15.29-2.38-2.48-5.87-4.36-11-4.62,0,0,10.53,7.91,16.12,18.61A22.87,22.87,0,0,0,136,83c2.63-1.15,15.68-7,19.88-10.75C160.52,68,155.85,59.53,155.85,59.53Z" transform="translate(-6.43 -6.45)"/><path class="cls-2" d="M127.93,82.91S113.65,64,95.51,88s-48.37,44.78-48.37,44.78S15,157,54.29,146.83s52.21-14.08,73.64-26.19S136.08,88.91,127.93,82.91Zm7.86,22.24s-.63,14.19-44.52,28.72c0,0-6,.57,0-2.25s39-17.18,37.92-26.47S137.62,100.87,135.79,105.15Z" transform="translate(-6.43 -6.45)"/></svg>