<svg id="Layer_1" data-name="Layer 1" xmlns="http://www.w3.org/2000/svg" viewBox="0 0 107.48 107.48"><defs><style>.cls-1{fill:#f1ac0b;stroke:#fff;stroke-miterlimit:10;stroke-width:2px;}.cls-2{fill:#ee1d52;}.cls-3{fill:#fff;}.cls-4{fill:#69c9d0;}</style></defs><title>Tiktok</title><circle class="cls-1" cx="53.74" cy="53.74" r="52.74"/><path class="cls-2" d="M70.41,119.55l.23.66Z" transform="translate(-45.73 -40.48)"/><path class="cls-3" d="M127.56,77.55v9.13a40.72,40.72,0,0,1-7.22-1,27.43,27.43,0,0,1-7-2.89s-1.9-1.25-2.06-1.34v24.08a24.27,24.27,0,0,1-1.42,7.48A21.83,21.83,0,0,1,98.6,125a21.54,21.54,0,0,1-8.95,2,22.1,22.1,0,0,1-12.05-3.61l0,0a22.34,22.34,0,0,1-1.7-1.93,23.13,23.13,0,0,1-3.21-5.84h0a23.53,23.53,0,0,1-1.28-7.78A21.37,21.37,0,0,1,74,97.91a23.37,23.37,0,0,1,5.06-6.18,21.36,21.36,0,0,1,6-3.56,20.39,20.39,0,0,1,7.47-1.57v9.25S87.84,94.3,84.08,97a9.9,9.9,0,0,0-.3,16.33c.41.27.82.51,1.21.72a9.36,9.36,0,0,0,2.21,2.14c3.42,2.26,6.3,2.42,10,1a9.36,9.36,0,0,0,5.14-5.65,13.65,13.65,0,0,0,.53-4.67V61.48h8.55a16.26,16.26,0,0,0,3.91,8,19.16,19.16,0,0,0,3.48,2.94,17,17,0,0,0,8.78,5.1Z" transform="translate(-45.73 -40.48)"/><path class="cls-4" d="M69.25,112.72h0l.21.6c0-.07-.1-.28-.21-.61Z" transform="translate(-45.73 -40.48)"/><path class="cls-3" d="M85.06,88.17a21.36,21.36,0,0,0-6,3.56A23.3,23.3,0,0,0,74,97.93a21.49,21.49,0,0,0-2.6,9.85,23.64,23.64,0,0,0,1.27,7.79h0a23.28,23.28,0,0,0,3.22,5.84,21.89,21.89,0,0,0,1.69,1.92,23.71,23.71,0,0,1-5.11-4.79,23.44,23.44,0,0,1-3.21-5.81v0h0A23.52,23.52,0,0,1,68,104.93a21.37,21.37,0,0,1,2.61-9.86,23.07,23.07,0,0,1,5.06-6.2,22.85,22.85,0,0,1,10.25-4.8,20.83,20.83,0,0,1,6.64-.1V86.6A20.44,20.44,0,0,0,85.06,88.17Z" transform="translate(-45.73 -40.48)"/><path class="cls-3" d="M111.4,61.48h-8.55v45.38a13.9,13.9,0,0,1-.53,4.67,9.4,9.4,0,0,1-5.15,5.65A10.06,10.06,0,0,1,85,114.09c2.92,1.56,5.53,1.53,8.77.23a9.39,9.39,0,0,0,5.14-5.65,13.63,13.63,0,0,0,.53-4.67V58.62h11.8A11.06,11.06,0,0,0,111.4,61.48ZM127.56,75v2.53a18.52,18.52,0,0,1-4-1.46,18.08,18.08,0,0,1-4.76-3.64,12.11,12.11,0,0,0,1.35.78A15.22,15.22,0,0,0,127.56,75Z" transform="translate(-45.73 -40.48)"/></svg>