<svg width="41" height="41" viewBox="0 0 41 41" fill="none" xmlns="http://www.w3.org/2000/svg">
<g clip-path="url(#clip0_111_59)">
<path d="M20.5012 41.0024C31.8237 41.0024 41.0024 31.8237 41.0024 20.5012C41.0024 9.1787 31.8237 0 20.5012 0C9.1787 0 0 9.1787 0 20.5012C0 31.8237 9.1787 41.0024 20.5012 41.0024Z" fill="#006838"/>
<path d="M18.9492 13.6758L12.9097 28.3804L6.90723 13.6758H8.63281L12.9097 24.521L17.2236 13.6758H18.9492ZM33.1436 20.7451C33.1436 23.0397 32.5189 24.8704 31.2695 26.2373C30.0264 27.6042 28.3317 28.2876 26.1855 28.2876C24.0951 28.2876 22.3633 27.5856 20.9902 26.1816C19.6172 24.7715 18.9307 22.9902 18.9307 20.8379C18.9307 18.7103 19.6141 16.9383 20.981 15.522C22.3478 14.0994 24.0579 13.3882 26.1113 13.3882C27.4287 13.3882 28.5884 13.6356 29.5903 14.1304C30.5985 14.619 31.4334 15.3457 32.0952 16.3105L30.8984 17.2661C30.3851 16.4992 29.7233 15.9116 28.9131 15.5034C28.1029 15.0952 27.1937 14.8911 26.1855 14.8911C24.5465 14.8911 23.1921 15.4632 22.1221 16.6074C21.0583 17.7454 20.5264 19.1865 20.5264 20.9307C20.5264 22.582 21.0675 23.9705 22.1499 25.0962C23.2384 26.2218 24.5837 26.7847 26.1855 26.7847C27.6019 26.7847 28.7987 26.3517 29.7759 25.4858C30.7531 24.62 31.2912 23.5314 31.3901 22.2202H26.9092V20.7451H33.1436Z" fill="#FFFAFA"/>
</g>
<defs>
<clipPath id="clip0_111_59">
<rect width="41" height="41" fill="white"/>
</clipPath>
</defs>
</svg>
