<svg id="Layer_1" data-name="Layer 1" xmlns="http://www.w3.org/2000/svg" viewBox="0 0 107.48 107.48"><defs><style>.cls-1{fill:#f1ac0b;stroke-width:2px;}.cls-1,.cls-2{stroke:#fff;stroke-miterlimit:10;}.cls-2{fill:none;stroke-width:3px;}.cls-3{fill:#fff;}</style></defs><title>Whatsapp</title><circle class="cls-1" cx="53.74" cy="53.74" r="52.74"/><path class="cls-2" d="M75.45,126.69l4.82-14.46a27.52,27.52,0,1,1,10.87,10.33Z" transform="translate(-48.72 -46.82)"/><path class="cls-3" d="M117.46,106c-1.06-2-5-4.31-5-4.31-.89-.5-2-.56-2.47.34a19.43,19.43,0,0,1-1.6,1.75,3,3,0,0,1-4.23-.42L101,100.14l-3.22-3.22a3,3,0,0,1-.42-4.23,19.43,19.43,0,0,1,1.75-1.6c.9-.51.85-1.58.34-2.47,0,0-2.3-3.92-4.31-5a2.2,2.2,0,0,0-2.59.39l-1.42,1.42C86.59,90,88.81,95,93.31,99.55l4.12,4.12,4.12,4.12c4.51,4.51,9.6,6.73,14.1,2.22l1.42-1.42A2.19,2.19,0,0,0,117.46,106Z" transform="translate(-48.72 -46.82)"/></svg>